<svg xmlns="http://www.w3.org/2000/svg" width="90px" height="22px"
	 viewBox="0 0 1080 1080" xml:space="preserve">
<style type="text/css">
	.st0{fill:#FFFFFF;}
	.st1{fill:#009462;}
</style>
<g>
	<g>
		<path class="st0" d="M172.81,616.33c-43.88,0-76.31-34.59-76.31-80.21c0-46.26,32.43-76.96,76.31-76.96h85.18v27.46h-85.18
			c-28.1,0-48.86,20.97-48.86,50.8c0,29.62,20.54,51.45,48.86,51.45h67.23v-40.86h-70.91v-23.13h98.58v91.45H172.81z"/>
		<g>
			<path class="st0" d="M304.97,611.49c-1.95,0-3.67-0.66-5.16-1.98c-1.49-1.32-2.66-3.15-3.51-5.48c-0.85-2.33-1.28-5-1.28-7.99
				c0-3.03,0.4-5.7,1.2-8.02c0.8-2.31,1.9-4.13,3.31-5.45c1.4-1.32,2.98-1.98,4.73-1.98c1.75,0,3.32,0.64,4.71,1.93
				c1.39,1.28,2.49,3.08,3.29,5.39c0.8,2.31,1.2,4.99,1.2,8.02c0,0.12-0.01,0.24-0.02,0.38c-0.01,0.14-0.02,0.28-0.02,0.44h-17.04
				v-2.27h16.04l-0.74,1.11c0.02-2.37-0.29-4.5-0.94-6.38s-1.53-3.36-2.64-4.43c-1.11-1.07-2.39-1.6-3.84-1.6
				c-1.43,0-2.7,0.53-3.82,1.6c-1.12,1.07-2,2.55-2.64,4.43c-0.64,1.89-0.96,4.03-0.96,6.44v0.53c0,2.49,0.35,4.7,1.05,6.62
				c0.7,1.93,1.67,3.42,2.9,4.49c1.23,1.07,2.64,1.6,4.21,1.6c1.23,0,2.38-0.35,3.46-1.05c1.07-0.7,1.98-1.77,2.72-3.21l1.07,1.93
				c-0.84,1.63-1.89,2.87-3.16,3.7C307.82,611.07,306.45,611.49,304.97,611.49z"/>
			<path class="st0" d="M343.41,580.59c1.55,0,2.9,0.48,4.05,1.43c1.15,0.95,2.04,2.39,2.68,4.32c0.64,1.93,0.96,4.31,0.96,7.14
				v17.79h-1.85v-17.55c0-3.42-0.53-6.03-1.59-7.81c-1.06-1.79-2.54-2.68-4.44-2.68c-1.45,0-2.71,0.49-3.77,1.46
				c-1.06,0.97-1.87,2.33-2.44,4.08c-0.57,1.75-0.85,3.85-0.85,6.3v16.21h-1.85v-17.55c0-3.42-0.53-6.03-1.59-7.81
				c-1.06-1.79-2.54-2.68-4.44-2.68c-1.45,0-2.71,0.49-3.77,1.46c-1.06,0.97-1.87,2.33-2.44,4.08c-0.57,1.75-0.85,3.85-0.85,6.3
				v16.21h-1.85v-30.44h1.77v8.4l-0.26-0.93c0.57-2.37,1.52-4.25,2.85-5.63c1.33-1.38,2.93-2.07,4.8-2.07c1.92,0,3.54,0.77,4.86,2.3
				c1.32,1.54,2.15,3.82,2.49,6.85l-0.63-0.41c0.52-2.6,1.49-4.71,2.92-6.33C339.62,581.39,341.36,580.59,343.41,580.59z"/>
			<path class="st0" d="M358.89,622.57v-41.75h1.77v9.97l-0.3,5.31l0.37,5.31v21.17H358.89z M368.58,611.49
				c-1.7,0-3.23-0.62-4.6-1.87c-1.37-1.24-2.45-3.02-3.25-5.34s-1.2-5.06-1.2-8.25c0-3.19,0.4-5.94,1.2-8.25s1.89-4.09,3.25-5.34
				c1.37-1.24,2.9-1.87,4.6-1.87c1.82,0,3.46,0.65,4.9,1.95c1.44,1.3,2.57,3.12,3.4,5.45c0.83,2.33,1.24,5.01,1.24,8.05
				c0,3.03-0.41,5.72-1.24,8.05c-0.83,2.33-1.96,4.15-3.4,5.45C372.03,610.84,370.4,611.49,368.58,611.49z M368.47,608.87
				c1.48,0,2.81-0.53,3.99-1.6c1.18-1.07,2.11-2.58,2.79-4.52c0.68-1.94,1.02-4.18,1.02-6.71c0-2.57-0.34-4.81-1.02-6.74
				c-0.68-1.92-1.61-3.42-2.79-4.49c-1.18-1.07-2.51-1.6-3.99-1.6c-1.48,0-2.8,0.53-3.97,1.6c-1.17,1.07-2.09,2.57-2.77,4.49
				c-0.68,1.93-1.02,4.17-1.02,6.74c0,2.53,0.34,4.76,1.02,6.71c0.68,1.94,1.6,3.45,2.77,4.52
				C365.66,608.33,366.99,608.87,368.47,608.87z"/>
			<path class="st0" d="M391.57,611.49c-1.85,0-3.49-0.66-4.93-1.98c-1.44-1.32-2.59-3.15-3.44-5.48c-0.85-2.33-1.27-5-1.27-7.99
				c0-3.03,0.43-5.7,1.27-8.02c0.85-2.31,2-4.13,3.44-5.45c1.44-1.32,3.09-1.98,4.93-1.98s3.5,0.66,4.95,1.98
				c1.45,1.32,2.6,3.14,3.44,5.45c0.84,2.31,1.26,4.99,1.26,8.02c0,2.99-0.42,5.66-1.26,7.99c-0.84,2.33-1.98,4.16-3.44,5.48
				C395.06,610.83,393.41,611.49,391.57,611.49z M391.57,608.87c1.48,0,2.81-0.53,3.99-1.6c1.18-1.07,2.11-2.58,2.77-4.52
				c0.66-1.94,1-4.18,1-6.71c0-2.57-0.33-4.81-1-6.74c-0.67-1.92-1.59-3.42-2.77-4.49c-1.18-1.07-2.51-1.6-3.99-1.6
				c-1.48,0-2.8,0.53-3.97,1.6c-1.17,1.07-2.1,2.57-2.77,4.49c-0.68,1.93-1.02,4.17-1.02,6.74c0,2.53,0.34,4.76,1.02,6.71
				c0.68,1.94,1.6,3.45,2.77,4.52C388.76,608.33,390.09,608.87,391.57,608.87z"/>
			<path class="st0" d="M410.34,611.26l-7.32-30.44h1.77l6.8,28.81h-0.78l6.99-28.81h1.59l6.95,28.81h-0.81l6.91-28.81h1.7
				l-7.32,30.44h-1.74l-6.8-27.64h0.59l-6.84,27.64H410.34z"/>
			<path class="st0" d="M445.9,611.49c-1.95,0-3.67-0.66-5.16-1.98c-1.49-1.32-2.66-3.15-3.51-5.48c-0.85-2.33-1.27-5-1.27-7.99
				c0-3.03,0.4-5.7,1.2-8.02c0.8-2.31,1.9-4.13,3.31-5.45c1.4-1.32,2.98-1.98,4.73-1.98c1.75,0,3.32,0.64,4.71,1.93
				c1.39,1.28,2.49,3.08,3.29,5.39c0.8,2.31,1.2,4.99,1.2,8.02c0,0.12-0.01,0.24-0.02,0.38c-0.01,0.14-0.02,0.28-0.02,0.44h-17.04
				v-2.27h16.04l-0.74,1.11c0.02-2.37-0.29-4.5-0.94-6.38s-1.53-3.36-2.64-4.43c-1.11-1.07-2.39-1.6-3.84-1.6
				c-1.43,0-2.7,0.53-3.83,1.6c-1.12,1.07-2,2.55-2.64,4.43c-0.64,1.89-0.96,4.03-0.96,6.44v0.53c0,2.49,0.35,4.7,1.05,6.62
				c0.7,1.93,1.67,3.42,2.9,4.49c1.23,1.07,2.64,1.6,4.21,1.6c1.23,0,2.38-0.35,3.46-1.05c1.07-0.7,1.98-1.77,2.72-3.21l1.07,1.93
				c-0.84,1.63-1.89,2.87-3.16,3.7C448.75,611.07,447.37,611.49,445.9,611.49z"/>
			<path class="st0" d="M460.31,611.26v-30.44h1.77v8.34l-0.18-0.93c0.54-2.45,1.45-4.33,2.74-5.66c1.28-1.32,2.88-1.98,4.8-1.98
				v2.86c-0.07,0-0.15-0.01-0.22-0.03c-0.07-0.02-0.15-0.03-0.22-0.03c-2.14,0-3.82,1.06-5.03,3.18c-1.21,2.12-1.81,5.06-1.81,8.83
				v15.86H460.31z"/>
			<path class="st0" d="M475.65,573.41c-0.42,0-0.78-0.23-1.07-0.7s-0.44-1.01-0.44-1.63c0-0.66,0.15-1.22,0.44-1.69
				s0.65-0.7,1.07-0.7c0.44,0,0.81,0.22,1.09,0.67c0.28,0.45,0.43,1,0.43,1.66s-0.14,1.22-0.43,1.69
				C476.46,573.18,476.09,573.41,475.65,573.41z M474.73,611.26v-30.44h1.85v30.44H474.73z"/>
			<path class="st0" d="M493.98,580.59c1.58,0,2.95,0.48,4.12,1.43c1.17,0.95,2.08,2.39,2.73,4.32c0.65,1.93,0.98,4.31,0.98,7.14
				v17.79h-1.85v-17.55c0-3.42-0.55-6.03-1.64-7.81c-1.1-1.79-2.63-2.68-4.6-2.68c-1.5,0-2.81,0.49-3.92,1.46
				c-1.11,0.97-1.95,2.33-2.53,4.08c-0.58,1.75-0.87,3.85-0.87,6.3v16.21h-1.85v-30.44h1.77v8.46l-0.26-0.93
				c0.59-2.41,1.56-4.3,2.92-5.69C490.35,581.28,492.01,580.59,493.98,580.59z"/>
			<path class="st0" d="M517.12,610.15c-1.82,0-3.46-0.63-4.9-1.9c-1.44-1.26-2.59-3.01-3.44-5.25c-0.85-2.23-1.27-4.79-1.27-7.67
				c0-2.92,0.43-5.48,1.27-7.7c0.85-2.22,2-3.95,3.44-5.19c1.44-1.24,3.07-1.87,4.9-1.87c1.75,0,3.32,0.59,4.71,1.78
				c1.39,1.19,2.49,2.88,3.31,5.07c0.81,2.2,1.22,4.83,1.22,7.9c0,3.03-0.41,5.66-1.22,7.87c-0.81,2.21-1.92,3.93-3.31,5.13
				C520.44,609.55,518.87,610.15,517.12,610.15z M517.64,622.81c-1.75,0-3.41-0.43-4.99-1.28c-1.58-0.86-2.86-2.04-3.84-3.56l1-2.22
				c0.96,1.4,2.11,2.49,3.46,3.27c1.34,0.78,2.79,1.17,4.34,1.17c2.59,0,4.49-0.95,5.71-2.86c1.22-1.91,1.83-4.9,1.83-8.98v-8.46
				l0.37-4.55l-0.3-4.55v-9.97h1.77v27.17c0,5.09-0.78,8.83-2.35,11.23C523.07,621.61,520.74,622.81,517.64,622.81z M517.27,607.53
				c1.55,0,2.92-0.51,4.1-1.54c1.18-1.03,2.11-2.47,2.79-4.32c0.68-1.85,1.02-3.96,1.02-6.33c0-2.41-0.34-4.53-1.02-6.36
				c-0.68-1.83-1.61-3.25-2.79-4.26c-1.18-1.01-2.55-1.52-4.1-1.52c-1.5,0-2.85,0.51-4.05,1.52c-1.19,1.01-2.13,2.43-2.81,4.26
				c-0.68,1.83-1.02,3.95-1.02,6.36c0,2.37,0.34,4.48,1.02,6.33c0.68,1.85,1.61,3.29,2.81,4.32
				C514.41,607.01,515.76,607.53,517.27,607.53z"/>
			<path class="st0" d="M544.69,611.26v-30.44h1.77v8.34l-0.18-0.93c0.54-2.45,1.45-4.33,2.74-5.66c1.28-1.32,2.88-1.98,4.8-1.98
				v2.86c-0.07,0-0.15-0.01-0.22-0.03c-0.07-0.02-0.15-0.03-0.22-0.03c-2.14,0-3.82,1.06-5.03,3.18c-1.21,2.12-1.81,5.06-1.81,8.83
				v15.86H544.69z"/>
			<path class="st0" d="M566.76,611.49c-1.95,0-3.67-0.66-5.16-1.98c-1.49-1.32-2.66-3.15-3.51-5.48c-0.85-2.33-1.27-5-1.27-7.99
				c0-3.03,0.4-5.7,1.2-8.02c0.8-2.31,1.9-4.13,3.31-5.45c1.4-1.32,2.98-1.98,4.73-1.98c1.75,0,3.32,0.64,4.71,1.93
				c1.39,1.28,2.49,3.08,3.29,5.39c0.8,2.31,1.2,4.99,1.2,8.02c0,0.12-0.01,0.24-0.02,0.38c-0.01,0.14-0.02,0.28-0.02,0.44h-17.04
				v-2.27h16.04l-0.74,1.11c0.02-2.37-0.29-4.5-0.94-6.38c-0.65-1.89-1.53-3.36-2.64-4.43c-1.11-1.07-2.39-1.6-3.84-1.6
				c-1.43,0-2.7,0.53-3.83,1.6c-1.12,1.07-2,2.55-2.64,4.43c-0.64,1.89-0.96,4.03-0.96,6.44v0.53c0,2.49,0.35,4.7,1.05,6.62
				c0.7,1.93,1.67,3.42,2.9,4.49c1.23,1.07,2.64,1.6,4.21,1.6c1.23,0,2.38-0.35,3.46-1.05c1.07-0.7,1.98-1.77,2.72-3.21l1.07,1.93
				c-0.84,1.63-1.89,2.87-3.16,3.7C569.61,611.07,568.23,611.49,566.76,611.49z"/>
			<path class="st0" d="M586.05,611.49c-1.6,0-3.1-0.37-4.49-1.11c-1.39-0.74-2.47-1.67-3.23-2.8l0.85-2.33
				c0.74,1.01,1.72,1.88,2.96,2.59c1.23,0.72,2.56,1.08,3.99,1.08c2.02,0,3.47-0.53,4.36-1.57c0.89-1.05,1.33-2.43,1.33-4.14
				c0-1.24-0.23-2.23-0.68-2.95c-0.46-0.72-1.07-1.27-1.83-1.66c-0.76-0.39-1.6-0.71-2.51-0.96c-0.91-0.25-1.82-0.53-2.74-0.85
				c-0.91-0.31-1.75-0.76-2.51-1.34c-0.76-0.58-1.37-1.39-1.83-2.42c-0.46-1.03-0.68-2.4-0.68-4.11c0-1.56,0.27-2.96,0.81-4.2
				c0.54-1.24,1.36-2.25,2.44-3c1.08-0.76,2.44-1.14,4.07-1.14c1.21,0,2.42,0.27,3.64,0.82c1.22,0.55,2.21,1.26,2.97,2.16
				l-0.85,2.33c-0.81-0.97-1.73-1.67-2.74-2.1c-1.01-0.43-2.03-0.64-3.07-0.64c-1.87,0-3.25,0.55-4.12,1.63
				c-0.88,1.09-1.31,2.45-1.31,4.08c0,1.28,0.23,2.3,0.68,3.06c0.46,0.76,1.06,1.34,1.83,1.75c0.76,0.41,1.6,0.74,2.51,0.99
				c0.91,0.25,1.82,0.53,2.74,0.84c0.91,0.31,1.75,0.75,2.51,1.31c0.76,0.56,1.37,1.34,1.83,2.33c0.46,0.99,0.68,2.32,0.68,4
				s-0.29,3.13-0.87,4.37c-0.58,1.24-1.44,2.22-2.57,2.92C589.09,611.14,587.7,611.49,586.05,611.49z"/>
			<path class="st0" d="M606.86,611.49c-1.95,0-3.67-0.66-5.16-1.98c-1.49-1.32-2.66-3.15-3.51-5.48c-0.85-2.33-1.28-5-1.28-7.99
				c0-3.03,0.4-5.7,1.2-8.02c0.8-2.31,1.9-4.13,3.31-5.45c1.4-1.32,2.98-1.98,4.73-1.98c1.75,0,3.32,0.64,4.71,1.93
				c1.39,1.28,2.49,3.08,3.29,5.39c0.8,2.31,1.2,4.99,1.2,8.02c0,0.12-0.01,0.24-0.02,0.38c-0.01,0.14-0.02,0.28-0.02,0.44h-17.04
				v-2.27h16.04l-0.74,1.11c0.02-2.37-0.29-4.5-0.94-6.38c-0.65-1.89-1.53-3.36-2.64-4.43c-1.11-1.07-2.39-1.6-3.84-1.6
				c-1.43,0-2.7,0.53-3.83,1.6c-1.12,1.07-2,2.55-2.64,4.43c-0.64,1.89-0.96,4.03-0.96,6.44v0.53c0,2.49,0.35,4.7,1.05,6.62
				c0.7,1.93,1.67,3.42,2.9,4.49c1.23,1.07,2.64,1.6,4.21,1.6c1.23,0,2.38-0.35,3.46-1.05c1.07-0.7,1.98-1.77,2.72-3.21l1.07,1.93
				c-0.84,1.63-1.89,2.87-3.16,3.7C609.71,611.07,608.34,611.49,606.86,611.49z"/>
			<path class="st0" d="M625.93,611.49c-1.43,0-2.67-0.36-3.71-1.08c-1.05-0.72-1.85-1.74-2.4-3.06c-0.55-1.32-0.83-2.84-0.83-4.55
				c0-1.55,0.23-2.96,0.68-4.23c0.46-1.26,1.21-2.29,2.27-3.09c1.06-0.8,2.48-1.2,4.25-1.2h7.1v2.27h-7.06c-2,0-3.39,0.58-4.19,1.75
				c-0.8,1.17-1.2,2.62-1.2,4.37c0,1.94,0.47,3.5,1.4,4.67c0.94,1.17,2.26,1.75,3.95,1.75c1.63,0,3-0.58,4.12-1.75
				c1.12-1.17,1.95-2.86,2.49-5.07l0.52,1.98c-0.52,2.22-1.4,3.98-2.64,5.28C629.43,610.84,627.85,611.49,625.93,611.49z
				 M632.88,611.26v-6.94l-0.07-1.05v-11.43c0-2.84-0.49-5-1.46-6.47c-0.97-1.48-2.4-2.22-4.27-2.22c-1.33,0-2.57,0.36-3.71,1.08
				c-1.15,0.72-2.13,1.64-2.94,2.77l-0.92-2.1c0.96-1.36,2.12-2.42,3.47-3.18c1.35-0.76,2.77-1.14,4.25-1.14
				c2.39,0,4.23,0.95,5.51,2.86c1.28,1.9,1.92,4.74,1.92,8.51v19.3H632.88z"/>
			<path class="st0" d="M642.45,611.26v-30.44h1.77v8.34l-0.18-0.93c0.54-2.45,1.45-4.33,2.74-5.66c1.28-1.32,2.88-1.98,4.8-1.98
				v2.86c-0.07,0-0.15-0.01-0.22-0.03c-0.07-0.02-0.15-0.03-0.22-0.03c-2.14,0-3.82,1.06-5.03,3.18c-1.21,2.12-1.81,5.06-1.81,8.83
				v15.86H642.45z"/>
			<path class="st0" d="M664.33,611.49c-1.87,0-3.54-0.66-5.01-1.98c-1.47-1.32-2.62-3.15-3.47-5.48c-0.85-2.33-1.27-5-1.27-7.99
				c0-3.03,0.43-5.71,1.27-8.05c0.85-2.33,2.01-4.15,3.47-5.45c1.47-1.3,3.14-1.95,5.01-1.95c1.55,0,2.96,0.47,4.23,1.4
				c1.27,0.93,2.3,2.33,3.09,4.2l-1.37,1.58c-0.69-1.55-1.55-2.7-2.59-3.44c-1.03-0.74-2.16-1.11-3.36-1.11
				c-1.5,0-2.85,0.53-4.05,1.6c-1.19,1.07-2.13,2.57-2.81,4.49c-0.68,1.93-1.02,4.17-1.02,6.74s0.34,4.81,1.02,6.74
				c0.68,1.93,1.61,3.42,2.81,4.49c1.2,1.07,2.54,1.6,4.05,1.6c1.21,0,2.33-0.37,3.36-1.11c1.03-0.74,1.9-1.89,2.59-3.44l1.37,1.57
				c-0.79,1.87-1.82,3.27-3.09,4.2C667.29,611.03,665.88,611.49,664.33,611.49z"/>
			<path class="st0" d="M686.47,580.59c1.58,0,2.95,0.48,4.12,1.43c1.17,0.95,2.08,2.39,2.73,4.32c0.65,1.93,0.98,4.31,0.98,7.14
				v17.79h-1.85v-17.55c0-3.42-0.55-6.03-1.64-7.81c-1.1-1.79-2.63-2.68-4.6-2.68c-1.5,0-2.81,0.49-3.92,1.46
				c-1.11,0.97-1.95,2.33-2.53,4.08c-0.58,1.75-0.87,3.85-0.87,6.3v16.21h-1.85v-43.27h1.85v21.28l-0.33-0.93
				c0.59-2.41,1.56-4.3,2.92-5.69C682.83,581.28,684.5,580.59,686.47,580.59z"/>
			<path class="st0" d="M701.88,611.49c-0.42,0-0.78-0.24-1.09-0.73c-0.31-0.49-0.46-1.08-0.46-1.78c0-0.7,0.15-1.28,0.46-1.75
				s0.67-0.7,1.09-0.7c0.42,0,0.78,0.23,1.09,0.7c0.31,0.47,0.46,1.05,0.46,1.75c0,0.7-0.15,1.29-0.46,1.78
				C702.66,611.25,702.3,611.49,701.88,611.49z"/>
			<path class="st0" d="M727.2,611.49c-1.95,0-3.67-0.66-5.16-1.98c-1.49-1.32-2.66-3.15-3.51-5.48c-0.85-2.33-1.28-5-1.28-7.99
				c0-3.03,0.4-5.7,1.2-8.02c0.8-2.31,1.9-4.13,3.31-5.45c1.4-1.32,2.98-1.98,4.73-1.98c1.75,0,3.32,0.64,4.71,1.93
				c1.39,1.28,2.49,3.08,3.29,5.39c0.8,2.31,1.2,4.99,1.2,8.02c0,0.12-0.01,0.24-0.02,0.38c-0.01,0.14-0.02,0.28-0.02,0.44h-17.04
				v-2.27h16.04l-0.74,1.11c0.02-2.37-0.29-4.5-0.94-6.38c-0.65-1.89-1.53-3.36-2.64-4.43c-1.11-1.07-2.39-1.6-3.84-1.6
				c-1.43,0-2.7,0.53-3.83,1.6c-1.12,1.07-2,2.55-2.64,4.43c-0.64,1.89-0.96,4.03-0.96,6.44v0.53c0,2.49,0.35,4.7,1.05,6.62
				c0.7,1.93,1.67,3.42,2.9,4.49c1.23,1.07,2.64,1.6,4.21,1.6c1.23,0,2.38-0.35,3.46-1.05c1.07-0.7,1.98-1.77,2.72-3.21l1.07,1.93
				c-0.84,1.63-1.89,2.87-3.16,3.7C730.05,611.07,728.68,611.49,727.2,611.49z"/>
			<path class="st0" d="M751.04,580.59c1.58,0,2.95,0.48,4.12,1.43c1.17,0.95,2.08,2.39,2.73,4.32c0.65,1.93,0.98,4.31,0.98,7.14
				v17.79h-1.85v-17.55c0-3.42-0.55-6.03-1.64-7.81c-1.1-1.79-2.63-2.68-4.6-2.68c-1.5,0-2.81,0.49-3.92,1.46
				c-1.11,0.97-1.95,2.33-2.53,4.08c-0.58,1.75-0.87,3.85-0.87,6.3v16.21h-1.85v-30.44h1.77v8.46l-0.26-0.93
				c0.59-2.41,1.56-4.3,2.92-5.69C747.4,581.28,749.07,580.59,751.04,580.59z"/>
			<path class="st0" d="M776.1,580.59c1.58,0,2.95,0.48,4.12,1.43c1.17,0.95,2.08,2.39,2.73,4.32c0.65,1.93,0.98,4.31,0.98,7.14
				v17.79h-1.85v-17.55c0-3.42-0.55-6.03-1.64-7.81c-1.1-1.79-2.63-2.68-4.6-2.68c-1.5,0-2.81,0.49-3.92,1.46
				c-1.11,0.97-1.95,2.33-2.53,4.08c-0.58,1.75-0.87,3.85-0.87,6.3v16.21h-1.85v-43.27h1.85v21.28l-0.33-0.93
				c0.59-2.41,1.56-4.3,2.92-5.69C772.46,581.28,774.12,580.59,776.1,580.59z"/>
			<path class="st0" d="M796.94,611.49c-1.43,0-2.67-0.36-3.71-1.08c-1.05-0.72-1.85-1.74-2.4-3.06c-0.55-1.32-0.83-2.84-0.83-4.55
				c0-1.55,0.23-2.96,0.68-4.23c0.46-1.26,1.21-2.29,2.27-3.09c1.06-0.8,2.48-1.2,4.25-1.2h7.1v2.27h-7.06c-2,0-3.39,0.58-4.19,1.75
				c-0.8,1.17-1.2,2.62-1.2,4.37c0,1.94,0.47,3.5,1.4,4.67c0.94,1.17,2.26,1.75,3.95,1.75c1.63,0,3-0.58,4.12-1.75
				c1.12-1.17,1.95-2.86,2.49-5.07l0.52,1.98c-0.52,2.22-1.4,3.98-2.64,5.28C800.45,610.84,798.86,611.49,796.94,611.49z
				 M803.89,611.26v-6.94l-0.07-1.05v-11.43c0-2.84-0.49-5-1.46-6.47c-0.97-1.48-2.4-2.22-4.27-2.22c-1.33,0-2.57,0.36-3.71,1.08
				c-1.15,0.72-2.13,1.64-2.94,2.77l-0.92-2.1c0.96-1.36,2.12-2.42,3.47-3.18c1.35-0.76,2.77-1.14,4.25-1.14
				c2.39,0,4.23,0.95,5.51,2.86c1.28,1.9,1.92,4.74,1.92,8.51v19.3H803.89z"/>
			<path class="st0" d="M821.11,611.49c-1.87,0-3.54-0.66-5.01-1.98c-1.47-1.32-2.62-3.15-3.47-5.48c-0.85-2.33-1.28-5-1.28-7.99
				c0-3.03,0.43-5.71,1.28-8.05c0.85-2.33,2.01-4.15,3.47-5.45c1.47-1.3,3.14-1.95,5.01-1.95c1.55,0,2.96,0.47,4.23,1.4
				c1.27,0.93,2.3,2.33,3.09,4.2l-1.37,1.58c-0.69-1.55-1.55-2.7-2.59-3.44c-1.03-0.74-2.16-1.11-3.36-1.11
				c-1.5,0-2.85,0.53-4.05,1.6c-1.19,1.07-2.13,2.57-2.81,4.49c-0.68,1.93-1.02,4.17-1.02,6.74s0.34,4.81,1.02,6.74
				c0.68,1.93,1.61,3.42,2.81,4.49c1.2,1.07,2.54,1.6,4.05,1.6c1.21,0,2.33-0.37,3.36-1.11c1.03-0.74,1.9-1.89,2.59-3.44l1.37,1.57
				c-0.79,1.87-1.82,3.27-3.09,4.2C824.07,611.03,822.66,611.49,821.11,611.49z"/>
			<path class="st0" d="M834.75,573.41c-0.42,0-0.78-0.23-1.07-0.7s-0.44-1.01-0.44-1.63c0-0.66,0.15-1.22,0.44-1.69
				s0.65-0.7,1.07-0.7c0.44,0,0.81,0.22,1.09,0.67c0.28,0.45,0.43,1,0.43,1.66s-0.14,1.22-0.43,1.69S835.19,573.41,834.75,573.41z
				 M833.83,611.26v-30.44h1.85v30.44H833.83z"/>
			<path class="st0" d="M853.08,580.59c1.58,0,2.95,0.48,4.12,1.43c1.17,0.95,2.08,2.39,2.73,4.32c0.65,1.93,0.98,4.31,0.98,7.14
				v17.79h-1.85v-17.55c0-3.42-0.55-6.03-1.64-7.81c-1.1-1.79-2.63-2.68-4.6-2.68c-1.5,0-2.81,0.49-3.92,1.46
				c-1.11,0.97-1.95,2.33-2.53,4.08c-0.58,1.75-0.87,3.85-0.87,6.3v16.21h-1.85v-30.44h1.77v8.46l-0.26-0.93
				c0.59-2.41,1.56-4.3,2.92-5.69C849.45,581.28,851.11,580.59,853.08,580.59z"/>
			<path class="st0" d="M876.22,610.15c-1.82,0-3.46-0.63-4.9-1.9c-1.44-1.26-2.59-3.01-3.44-5.25c-0.85-2.23-1.27-4.79-1.27-7.67
				c0-2.92,0.43-5.48,1.27-7.7c0.85-2.22,2-3.95,3.44-5.19c1.44-1.24,3.07-1.87,4.9-1.87c1.75,0,3.32,0.59,4.71,1.78
				c1.39,1.19,2.49,2.88,3.31,5.07c0.81,2.2,1.22,4.83,1.22,7.9c0,3.03-0.41,5.66-1.22,7.87c-0.81,2.21-1.92,3.93-3.31,5.13
				C879.54,609.55,877.97,610.15,876.22,610.15z M876.74,622.81c-1.75,0-3.41-0.43-4.99-1.28c-1.58-0.86-2.86-2.04-3.84-3.56l1-2.22
				c0.96,1.4,2.11,2.49,3.46,3.27c1.34,0.78,2.79,1.17,4.34,1.17c2.59,0,4.49-0.95,5.71-2.86c1.22-1.91,1.83-4.9,1.83-8.98v-8.46
				l0.37-4.55l-0.3-4.55v-9.97h1.77v27.17c0,5.09-0.78,8.83-2.35,11.23C882.18,621.61,879.84,622.81,876.74,622.81z M876.37,607.53
				c1.55,0,2.92-0.51,4.1-1.54c1.18-1.03,2.11-2.47,2.79-4.32c0.68-1.85,1.02-3.96,1.02-6.33c0-2.41-0.34-4.53-1.02-6.36
				c-0.68-1.83-1.61-3.25-2.79-4.26c-1.18-1.01-2.55-1.52-4.1-1.52c-1.5,0-2.85,0.51-4.05,1.52c-1.19,1.01-2.13,2.43-2.81,4.26
				c-0.68,1.83-1.02,3.95-1.02,6.36c0,2.37,0.34,4.48,1.02,6.33c0.68,1.85,1.61,3.29,2.81,4.32
				C873.52,607.01,874.86,607.53,876.37,607.53z"/>
			<path class="st0" d="M903.79,611.26v-43.27h1.85v43.27H903.79z"/>
			<path class="st0" d="M914.55,573.41c-0.42,0-0.78-0.23-1.07-0.7s-0.44-1.01-0.44-1.63c0-0.66,0.15-1.22,0.44-1.69
				s0.65-0.7,1.07-0.7c0.44,0,0.81,0.22,1.09,0.67c0.28,0.45,0.43,1,0.43,1.66s-0.14,1.22-0.43,1.69
				C915.35,573.18,914.99,573.41,914.55,573.41z M913.62,611.26v-30.44h1.85v30.44H913.62z"/>
			<path class="st0" d="M928.33,611.26l-8.69-30.44h1.96l8.13,28.81h-0.89l8.21-28.81h1.88l-8.72,30.44H928.33z"/>
			<path class="st0" d="M950.43,611.49c-1.95,0-3.67-0.66-5.16-1.98c-1.49-1.32-2.66-3.15-3.51-5.48c-0.85-2.33-1.27-5-1.27-7.99
				c0-3.03,0.4-5.7,1.2-8.02c0.8-2.31,1.9-4.13,3.31-5.45c1.4-1.32,2.98-1.98,4.73-1.98s3.32,0.64,4.71,1.93
				c1.39,1.28,2.49,3.08,3.29,5.39c0.8,2.31,1.2,4.99,1.2,8.02c0,0.12-0.01,0.24-0.02,0.38c-0.01,0.14-0.02,0.28-0.02,0.44h-17.04
				v-2.27h16.04l-0.74,1.11c0.02-2.37-0.29-4.5-0.94-6.38c-0.65-1.89-1.53-3.36-2.64-4.43c-1.11-1.07-2.39-1.6-3.84-1.6
				c-1.43,0-2.7,0.53-3.83,1.6c-1.12,1.07-2,2.55-2.64,4.43s-0.96,4.03-0.96,6.44v0.53c0,2.49,0.35,4.7,1.05,6.62
				c0.7,1.93,1.67,3.42,2.9,4.49c1.23,1.07,2.64,1.6,4.21,1.6c1.23,0,2.38-0.35,3.46-1.05c1.07-0.7,1.98-1.77,2.72-3.21l1.07,1.93
				c-0.84,1.63-1.89,2.87-3.16,3.7C953.28,611.07,951.91,611.49,950.43,611.49z"/>
			<path class="st0" d="M969.73,611.49c-1.6,0-3.1-0.37-4.49-1.11c-1.39-0.74-2.47-1.67-3.23-2.8l0.85-2.33
				c0.74,1.01,1.73,1.88,2.96,2.59c1.23,0.72,2.56,1.08,3.99,1.08c2.02,0,3.48-0.53,4.36-1.57c0.89-1.05,1.33-2.43,1.33-4.14
				c0-1.24-0.23-2.23-0.68-2.95c-0.46-0.72-1.07-1.27-1.83-1.66c-0.76-0.39-1.6-0.71-2.51-0.96s-1.82-0.53-2.74-0.85
				c-0.91-0.31-1.75-0.76-2.51-1.34c-0.76-0.58-1.37-1.39-1.83-2.42c-0.46-1.03-0.68-2.4-0.68-4.11c0-1.56,0.27-2.96,0.81-4.2
				c0.54-1.24,1.35-2.25,2.44-3c1.08-0.76,2.44-1.14,4.07-1.14c1.21,0,2.42,0.27,3.64,0.82c1.22,0.55,2.21,1.26,2.97,2.16
				l-0.85,2.33c-0.81-0.97-1.73-1.67-2.74-2.1c-1.01-0.43-2.03-0.64-3.07-0.64c-1.87,0-3.25,0.55-4.12,1.63
				c-0.88,1.09-1.31,2.45-1.31,4.08c0,1.28,0.23,2.3,0.68,3.06c0.46,0.76,1.07,1.34,1.83,1.75c0.76,0.41,1.6,0.74,2.51,0.99
				c0.91,0.25,1.82,0.53,2.73,0.84c0.91,0.31,1.75,0.75,2.51,1.31c0.76,0.56,1.37,1.34,1.83,2.33c0.46,0.99,0.68,2.32,0.68,4
				s-0.29,3.13-0.87,4.37c-0.58,1.24-1.44,2.22-2.57,2.92C972.77,611.14,971.38,611.49,969.73,611.49z"/>
		</g>
		<g>
			<path class="st0" d="M304.15,459.16v87.47h-15.29v-87.47H304.15z"/>
			<path class="st0" d="M456.63,546.64H440.3l27.09-72.83c3.37-9.98,8.94-16.2,20.6-16.2c12.96,0,19.44,7.65,19.44,19.05v51.71
				c0,2.98,1.81,4.92,4.41,4.92c2.33,0,4.15-1.43,4.92-3.63l21.25-55.85c3.37-9.98,8.94-16.2,20.61-16.2
				c12.96,0,19.44,7.65,19.44,19.05v69.98h-15.42v-69.2c0-3.11-1.81-5.05-4.41-5.05c-2.2,0-4.02,1.56-4.79,3.76l-21.25,55.86
				c-3.37,9.98-9.07,16.2-20.74,16.2c-12.83,0-19.31-7.65-19.31-19.18v-51.58c0-3.11-1.94-5.05-4.54-5.05
				c-2.33,0-3.89,1.56-4.8,3.76L456.63,546.64z"/>
			<path class="st0" d="M672.55,459.16v15.29h-43.8c-9.2,0-13.22,4.28-13.22,11.01c0,7.13,4.54,10.37,13.35,10.37h43.02v13.87
				h-43.41c-8.81,0-13.35,3.5-13.35,10.63c0,6.87,4.28,11.01,13.22,11.01h44.32v15.29h-44.32c-20.73,0-29.16-10.24-29.16-23.85
				c0-9.98,4.54-16.72,12.57-20.09c-8.16-3.37-12.31-10.11-12.31-19.7c0-14,8.68-23.84,29.29-23.84H672.55z"/>
			<path class="st0" d="M731.93,459.16c25.53,0,39.4,14.25,39.4,43.8c0,29.42-13.74,43.67-39.4,43.67h-30.84
				c-4.92,0-7.26-2.33-7.26-7.13v-73.22c0-4.79,2.33-7.13,7.26-7.13H731.93z M709.12,529.79c0,1.17,0.52,1.55,1.68,1.55h21.12
				c16.98,0,24.1-8.42,24.1-28.51c0-19.96-7.13-28.38-24.1-28.38H710.8c-1.17,0-1.68,0.39-1.68,1.56V529.79z"/>
			<path class="st0" d="M865.82,459.16v15.29h-43.8c-9.2,0-13.22,4.28-13.22,11.01c0,7.13,4.54,10.37,13.35,10.37h43.02v13.87
				h-43.41c-8.81,0-13.35,3.5-13.35,10.63c0,6.87,4.28,11.01,13.22,11.01h44.32v15.29h-44.32c-20.73,0-29.16-10.24-29.16-23.85
				c0-9.98,4.54-16.72,12.57-20.09c-8.16-3.37-12.31-10.11-12.31-19.7c0-14,8.68-23.84,29.29-23.84H865.82z"/>
			<path class="st0" d="M909.38,459.16l26.83,32.27l28.12-32.27h18.92l-37.45,43.02l37.71,44.45h-18.66l-29.03-34.73l-29.81,34.73
				h-18.92l39.14-45.62l-35.51-41.86H909.38z"/>
			<g>
				<path class="st0" d="M419.16,501.28c0,8.16-2.21,15.8-6.07,22.34c-0.01,0-0.01,0-0.02,0c-6.33-1.03-12.52-2.86-17.96-6.34
					c-2.42-1.55-4.64-3.4-6.53-5.56c-2.1-2.4-3.55-5.18-4.87-8.06c-1.28-2.77-2.57-5.48-4.44-7.91c-1.74-2.27-3.81-4.22-6.09-5.93
					c-4.52-3.35-9.92-5.53-15.42-6.61c-7.62-1.51-15.4-1-23.01,0.25c6.84-15.47,22.33-26.27,40.33-26.27
					C399.42,457.19,419.16,476.93,419.16,501.28z"/>
				<path class="st1" d="M407.39,530.06c-0.54,0.93-1.12,1.83-1.73,2.71c-7.95,11.51-21.23,19.04-36.27,19.04
					c-24.35,0-44.09-19.73-44.09-44.08c0-5.28,0.93-10.35,2.64-15.04c0.34-0.94,0.71-1.86,1.12-2.77
					c7.61-1.25,15.39-1.75,23.01-0.25c5.5,1.08,10.9,3.26,15.42,6.61c2.29,1.7,4.35,3.66,6.09,5.93c1.87,2.43,3.16,5.13,4.44,7.91
					c1.32,2.87,2.76,5.66,4.87,8.06c1.89,2.16,4.11,4.01,6.53,5.56c5.44,3.48,11.62,5.31,17.96,6.34
					C407.38,530.06,407.38,530.06,407.39,530.06z"/>
			</g>
		</g>
	</g>
</g>
</svg>
