<?xml version="1.0" encoding="UTF-8"?>
<svg id="Layer_1" data-name="Layer 1" xmlns="http://www.w3.org/2000/svg" viewBox="0 0 127 24">
  <defs>
    <style>
      .cls-1 {
        fill: #fff;
      }

      .cls-2 {
        fill: #009462;
      }
    </style>
  </defs>
  <path class="cls-1" d="M10.96,23.1C4.64,23.1,0,18.12,0,11.55S4.64,.4,10.96,.4h12.15v3.98H10.96c-4.05,0-7.01,2.99-7.01,7.37s2.96,7.47,7.01,7.47h9.58v-5.88H10.37v-3.39h14.12v13.24H10.96v-.1Z"/>
  <g>
    <path class="cls-1" d="M29.82,22.41c-.3,0-.49-.1-.69-.3s-.4-.5-.49-.8-.2-.7-.2-1.2c0-.4,.1-.8,.2-1.2,.1-.3,.3-.6,.49-.8,.2-.2,.4-.3,.69-.3s.49,.1,.69,.3c.2,.2,.4,.4,.49,.8,.1,.3,.2,.7,.2,1.2v.2h-2.47v-.3h2.27l-.1,.2c0-.3,0-.7-.1-.9-.1-.3-.2-.5-.4-.6-.2-.2-.3-.2-.59-.2-.2,0-.4,.1-.59,.2-.2,.2-.3,.4-.4,.6-.1,.3-.1,.6-.1,.9v.1c0,.4,.1,.7,.2,1s.2,.5,.4,.7c.2,.2,.4,.2,.59,.2s.3-.1,.49-.2,.3-.3,.4-.5l.2,.3c-.1,.2-.3,.4-.49,.5-.2,0-.4,.1-.69,.1Z"/>
    <path class="cls-1" d="M35.35,17.93c.2,0,.4,.1,.59,.2,.2,.1,.3,.3,.4,.6,.1,.3,.1,.6,.1,1v2.59h-.3v-2.49c0-.5-.1-.9-.2-1.1-.2-.3-.4-.4-.59-.4s-.4,.1-.49,.2c-.2,.1-.3,.3-.4,.6-.1,.3-.1,.6-.1,.9v2.29h-.3v-2.49c0-.5-.1-.9-.2-1.1-.2-.3-.4-.4-.59-.4s-.4,.1-.49,.2c-.2,.1-.3,.3-.4,.6-.1,.3-.1,.6-.1,.9v2.29h-.39v-4.38h.3v1.1c.1-.3,.2-.6,.4-.8,.2-.2,.4-.3,.69-.3s.49,.1,.69,.3c.2,.2,.3,.6,.4,1l-.1-.1c.1-.4,.2-.7,.4-.9,.2-.2,.4-.3,.69-.3Z"/>
    <path class="cls-1" d="M37.63,24v-5.98h.3v2.19l.1,.8v2.99h-.39Zm1.38-1.59c-.2,0-.49-.1-.69-.3-.2-.2-.4-.4-.49-.8-.1-.3-.2-.7-.2-1.2s.1-.9,.2-1.2c.1-.3,.3-.6,.49-.8,.2-.2,.4-.3,.69-.3s.49,.1,.69,.3,.4,.5,.49,.8,.2,.7,.2,1.2c0,.4-.1,.8-.2,1.2-.1,.3-.3,.6-.49,.8s-.49,.3-.69,.3Zm-.1-.4c.2,0,.4-.1,.59-.2,.2-.2,.3-.4,.4-.7,.1-.3,.1-.6,.1-1s0-.7-.1-1-.2-.5-.4-.7-.4-.2-.59-.2-.4,.1-.59,.2c-.2,.2-.3,.4-.4,.7-.1,.3-.1,.6-.1,1s0,.7,.1,1,.2,.5,.4,.7c.2,.1,.4,.2,.59,.2Z"/>
    <path class="cls-1" d="M42.27,22.41c-.3,0-.49-.1-.69-.3s-.4-.5-.49-.8-.2-.7-.2-1.2c0-.4,.1-.8,.2-1.2,.1-.3,.3-.6,.49-.8s.4-.3,.69-.3,.49,.1,.69,.3,.4,.5,.49,.8,.2,.7,.2,1.2c0,.4-.1,.8-.2,1.2-.1,.3-.3,.6-.49,.8s-.4,.3-.69,.3Zm0-.4c.2,0,.4-.1,.59-.2,.2-.2,.3-.4,.4-.7s.1-.6,.1-1,0-.7-.1-1-.2-.5-.4-.7-.4-.2-.59-.2-.4,.1-.59,.2c-.2,.2-.3,.4-.4,.7-.1,.3-.1,.6-.1,1s0,.7,.1,1,.2,.5,.4,.7c.2,.1,.39,.2,.59,.2Z"/>
    <path class="cls-1" d="M44.93,22.31l-1.09-4.38h.3l.99,4.18h-.1l.99-4.18h.2l.99,4.18h-.1l.99-4.18h.2l-1.09,4.38h-.3l-.99-3.98h.1l-.99,3.98s-.1,0-.1,0Z"/>
    <path class="cls-1" d="M50.07,22.41c-.3,0-.49-.1-.69-.3-.2-.2-.4-.5-.49-.8s-.2-.7-.2-1.2c0-.4,.1-.8,.2-1.2,.1-.3,.3-.6,.49-.8,.2-.2,.4-.3,.69-.3s.49,.1,.69,.3c.2,.2,.4,.4,.49,.8,.1,.3,.2,.7,.2,1.2v.2h-2.47v-.3h2.27l-.1,.2c0-.3,0-.7-.1-.9-.1-.3-.2-.5-.4-.6-.2-.2-.3-.2-.59-.2-.2,0-.4,.1-.59,.2-.2,.2-.3,.4-.4,.6-.1,.3-.1,.6-.1,.9v.1c0,.4,.1,.7,.2,1,.1,.3,.2,.5,.4,.7s.4,.2,.59,.2,.3-.1,.49-.2,.3-.3,.4-.5l.2,.3c-.1,.2-.3,.4-.49,.5-.3,0-.49,.1-.69,.1Z"/>
    <path class="cls-1" d="M52.14,22.31v-4.38h.3v1.1c.1-.4,.2-.6,.4-.8,.2-.2,.4-.3,.69-.3v.4h0c-.3,0-.59,.2-.69,.5-.2,.3-.3,.7-.3,1.29v2.29h-.4v-.1Z"/>
    <path class="cls-1" d="M54.32,16.83q-.1,0-.2-.1c0-.1-.1-.1-.1-.2s0-.2,.1-.2c0-.1,.1-.1,.2-.1s.1,0,.2,.1c0,.1,.1,.1,.1,.2s0,.2-.1,.2c-.1,.1-.2,.1-.2,.1Zm-.2,5.48v-4.38h.3v4.38h-.3Z"/>
    <path class="cls-1" d="M56.88,17.93c.2,0,.4,.1,.59,.2s.3,.3,.4,.6c.1,.3,.1,.6,.1,1v2.59h-.3v-2.49c0-.5-.1-.9-.2-1.1-.2-.3-.4-.4-.69-.4-.2,0-.4,.1-.59,.2-.2,.1-.3,.3-.4,.6-.1,.3-.1,.6-.1,.9v2.29h-.1v-4.38h.3v1.1c.1-.3,.2-.6,.4-.8,.1-.2,.39-.3,.59-.3Z"/>
    <path class="cls-1" d="M60.24,22.21c-.3,0-.49-.1-.69-.3-.2-.2-.4-.4-.49-.8-.1-.3-.2-.7-.2-1.1s.1-.8,.2-1.1c.1-.3,.3-.6,.49-.8,.2-.2,.4-.3,.69-.3s.49,.1,.69,.3,.4,.4,.49,.7c.1,.3,.2,.7,.2,1.1s-.1,.8-.2,1.1c-.1,.3-.3,.6-.49,.7-.2,.4-.49,.5-.69,.5Zm.1,1.79c-.3,0-.49-.1-.69-.2s-.4-.3-.59-.5l.1-.3c.1,.2,.3,.4,.49,.5s.4,.2,.59,.2c.4,0,.69-.1,.79-.4,.2-.3,.3-.7,.3-1.29v-1.2l.1-.7v-2.09h.3v3.88c0,.7-.1,1.29-.3,1.59-.3,.3-.69,.5-1.09,.5Zm-.1-2.19c.2,0,.4-.1,.59-.2,.2-.1,.3-.4,.4-.6,.1-.3,.1-.6,.1-.9s0-.7-.1-.9c-.1-.3-.2-.5-.4-.6s-.4-.2-.59-.2-.4,.1-.59,.2c-.2,.1-.3,.4-.4,.6-.1,.3-.1,.6-.1,.9s0,.6,.1,.9,.2,.5,.4,.6c.2,.1,.39,.2,.59,.2Z"/>
    <path class="cls-1" d="M64.19,22.31v-4.38h.3v1.1c.1-.4,.2-.6,.4-.8,.2-.2,.4-.3,.69-.3v.4h0c-.3,0-.59,.2-.69,.5-.2,.3-.3,.7-.3,1.29v2.29h-.4v-.1Z"/>
    <path class="cls-1" d="M67.35,22.41c-.3,0-.49-.1-.69-.3-.2-.2-.4-.5-.49-.8s-.2-.7-.2-1.2c0-.4,.1-.8,.2-1.2,.1-.3,.3-.6,.49-.8,.2-.2,.4-.3,.69-.3s.49,.1,.69,.3c.2,.2,.4,.4,.49,.8,.1,.3,.2,.7,.2,1.2v.2h-2.47v-.3h2.27l-.1,.2c0-.3,0-.7-.1-.9-.1-.3-.2-.5-.4-.6-.2-.2-.3-.2-.59-.2-.2,0-.4,.1-.59,.2-.2,.2-.3,.4-.4,.6-.1,.3-.1,.6-.1,.9v.1c0,.4,.1,.7,.2,1,.1,.3,.2,.5,.4,.7s.4,.2,.59,.2,.3-.1,.49-.2,.3-.3,.4-.5l.2,.3c-.1,.2-.3,.4-.49,.5-.3,0-.49,.1-.69,.1Z"/>
    <path class="cls-1" d="M70.12,22.41c-.2,0-.4-.1-.69-.2-.2-.1-.4-.2-.49-.4l.1-.3c.1,.1,.2,.3,.4,.4s.4,.2,.59,.2c.3,0,.49-.1,.59-.2,.1-.2,.2-.4,.2-.6s0-.3-.1-.4-.2-.2-.3-.2c-.1-.1-.2-.1-.4-.1-.1,0-.3-.1-.4-.1s-.3-.1-.4-.2c-.1-.1-.2-.2-.3-.4-.1-.1-.1-.3-.1-.6,0-.2,0-.4,.1-.6s.2-.3,.4-.4,.4-.2,.59-.2,.4,0,.49,.1c.2,.1,.3,.2,.4,.3l-.1,.3c-.1-.1-.3-.2-.4-.3-.1-.1-.3-.1-.4-.1-.3,0-.49,.1-.59,.2-.1,.2-.2,.4-.2,.6s0,.3,.1,.4,.2,.2,.3,.3c.1,.1,.2,.1,.4,.1,.1,0,.3,.1,.4,.1s.3,.1,.4,.2c.1,.1,.2,.2,.3,.3,.1,.1,.1,.3,.1,.6,0,.2,0,.5-.1,.6-.1,.2-.2,.3-.4,.4-.1,.1-.3,.2-.49,.2Z"/>
    <path class="cls-1" d="M73.08,22.41c-.3,0-.49-.1-.69-.3-.2-.2-.4-.5-.49-.8s-.2-.7-.2-1.2c0-.4,.1-.8,.2-1.2,.1-.3,.3-.6,.49-.8,.2-.2,.4-.3,.69-.3s.49,.1,.69,.3c.2,.2,.4,.4,.49,.8,.1,.3,.2,.7,.2,1.2v.2h-2.47v-.3h2.27l-.1,.2c0-.3,0-.7-.1-.9-.1-.3-.2-.5-.4-.6-.2-.2-.3-.2-.59-.2-.2,0-.4,.1-.59,.2-.2,.2-.3,.4-.4,.6-.1,.3-.1,.6-.1,.9v.1c0,.4,.1,.7,.2,1,.1,.3,.2,.5,.4,.7s.4,.2,.59,.2,.3-.1,.49-.2,.3-.3,.4-.5l.2,.3c-.1,.2-.3,.4-.49,.5-.3,0-.49,.1-.69,.1Z"/>
    <path class="cls-1" d="M75.84,22.41c-.2,0-.4-.1-.49-.2-.2-.1-.3-.3-.3-.4s-.1-.4-.1-.7c0-.2,0-.4,.1-.6s.2-.3,.3-.4c.2-.1,.4-.2,.59-.2h.99v.3h-.99c-.3,0-.49,.1-.59,.3-.1,.2-.2,.4-.2,.6,0,.3,.1,.5,.2,.7,.1,.2,.3,.3,.59,.3,.2,0,.4-.1,.59-.3,.2-.2,.3-.4,.4-.7l.1,.3c-.1,.3-.2,.6-.4,.8-.3,.1-.59,.2-.79,.2Zm.99-.1v-2.89c0-.4-.1-.7-.2-.9-.1-.2-.3-.3-.59-.3-.2,0-.4,.1-.49,.2-.2,.1-.3,.2-.4,.4l-.1-.3c.1-.2,.3-.4,.49-.5s.4-.2,.59-.2c.3,0,.59,.1,.79,.4s.3,.7,.3,1.2v2.79l-.39,.1h0Z"/>
    <path class="cls-1" d="M78.21,22.31v-4.38h.3v1.1c.1-.4,.2-.6,.4-.8,.2-.2,.4-.3,.69-.3v.4h0c-.3,0-.59,.2-.69,.5-.2,.3-.3,.7-.3,1.29v2.29h-.4v-.1Z"/>
    <path class="cls-1" d="M81.28,22.41c-.3,0-.49-.1-.69-.3-.2-.2-.4-.5-.49-.8s-.2-.7-.2-1.2c0-.4,.1-.8,.2-1.2,.1-.3,.3-.6,.49-.8,.2-.2,.49-.3,.69-.3s.4,.1,.59,.2c.2,.1,.3,.3,.4,.6l-.2,.2c-.1-.2-.2-.4-.4-.5-.1-.1-.3-.2-.49-.2s-.4,.1-.59,.2c-.2,.2-.3,.4-.4,.7-.1,.3-.1,.6-.1,1s0,.7,.1,1,.2,.5,.4,.7,.4,.2,.59,.2,.3-.1,.49-.2c.1-.1,.3-.3,.4-.5l.2,.2c-.1,.3-.3,.5-.4,.6s-.39,.4-.59,.4Z"/>
    <path class="cls-1" d="M84.44,17.93c.2,0,.4,.1,.59,.2s.3,.3,.4,.6c.1,.3,.1,.6,.1,1v2.59h-.3v-2.49c0-.5-.1-.9-.2-1.1-.2-.3-.4-.4-.69-.4-.2,0-.4,.1-.59,.2-.2,.1-.3,.3-.4,.6-.1,.3-.1,.6-.1,.9v2.29h-.3v-6.27h.3v2.99c.1-.3,.2-.6,.4-.8,.3-.2,.49-.3,.79-.3Z"/>
    <path class="cls-1" d="M86.71,22.41q-.1,0-.2-.1c-.1-.1-.1-.2-.1-.3s0-.2,.1-.3c0-.1,.1-.1,.2-.1s.1,0,.2,.1c0,.1,.1,.2,.1,.3s0,.2-.1,.3c-.1,0-.2,.1-.2,.1Z"/>
    <path class="cls-1" d="M90.26,22.41c-.3,0-.49-.1-.69-.3-.2-.2-.4-.5-.49-.8s-.2-.7-.2-1.2c0-.4,.1-.8,.2-1.2,.1-.3,.3-.6,.49-.8,.2-.2,.4-.3,.69-.3s.49,.1,.69,.3c.2,.2,.4,.4,.49,.8,.1,.3,.2,.7,.2,1.2v.2h-2.47v-.3h2.27l-.1,.2c0-.3,0-.7-.1-.9-.1-.3-.2-.5-.4-.6-.2-.2-.3-.2-.59-.2-.2,0-.4,.1-.59,.2-.2,.2-.3,.4-.4,.6-.1,.3-.1,.6-.1,.9v.1c0,.4,.1,.7,.2,1,.1,.3,.2,.5,.4,.7s.4,.2,.59,.2,.3-.1,.49-.2,.3-.3,.4-.5l.2,.3c-.1,.2-.3,.4-.49,.5-.3,0-.49,.1-.69,.1Z"/>
    <path class="cls-1" d="M93.72,17.93c.2,0,.4,.1,.59,.2s.3,.3,.4,.6c.1,.3,.1,.6,.1,1v2.59h-.3v-2.49c0-.5-.1-.9-.2-1.1-.2-.3-.4-.4-.69-.4-.2,0-.4,.1-.59,.2-.2,.1-.3,.3-.4,.6-.1,.3-.1,.6-.1,.9v2.29h-.3v-4.38h.3v1.1c.1-.3,.2-.6,.4-.8,.3-.2,.49-.3,.79-.3Z"/>
    <path class="cls-1" d="M97.27,17.93c.2,0,.4,.1,.59,.2s.3,.3,.4,.6c.1,.3,.1,.6,.1,1v2.59h-.3v-2.49c0-.5-.1-.9-.2-1.1-.2-.3-.4-.4-.69-.4-.2,0-.4,.1-.59,.2-.2,.1-.3,.3-.4,.6-.1,.3-.1,.6-.1,.9v2.29h-.3v-6.27h.3v2.99c.1-.3,.2-.6,.4-.8,.3-.2,.49-.3,.79-.3Z"/>
    <path class="cls-1" d="M100.24,22.41c-.2,0-.4-.1-.49-.2-.2-.1-.3-.3-.3-.4s-.1-.4-.1-.7c0-.2,0-.4,.1-.6s.2-.3,.3-.4c.2-.1,.4-.2,.59-.2h.99v.3h-.99c-.3,0-.49,.1-.59,.3-.1,.2-.2,.4-.2,.6,0,.3,.1,.5,.2,.7,.1,.2,.3,.3,.59,.3,.2,0,.4-.1,.59-.3,.2-.2,.3-.4,.4-.7l.1,.3c-.1,.3-.2,.6-.4,.8-.3,.1-.49,.2-.79,.2Zm.99-.1v-2.89c0-.4-.1-.7-.2-.9-.1-.2-.3-.3-.59-.3-.2,0-.4,.1-.49,.2-.2,.1-.3,.2-.4,.4l-.1-.3c.1-.2,.3-.4,.49-.5s.4-.2,.59-.2c.3,0,.59,.1,.79,.4s.3,.7,.3,1.2v2.79l-.39,.1h0Z"/>
    <path class="cls-1" d="M103.69,22.41c-.3,0-.49-.1-.69-.3-.2-.2-.4-.5-.49-.8s-.2-.7-.2-1.2c0-.4,.1-.8,.2-1.2,.1-.3,.3-.6,.49-.8,.2-.2,.49-.3,.69-.3s.4,.1,.59,.2c.2,.1,.3,.3,.4,.6l-.2,.2c-.1-.2-.2-.4-.4-.5-.1-.1-.3-.2-.49-.2s-.4,.1-.59,.2c-.2,.2-.3,.4-.4,.7-.1,.3-.1,.6-.1,1s0,.7,.1,1,.2,.5,.4,.7,.4,.2,.59,.2,.3-.1,.49-.2c.1-.1,.3-.3,.4-.5l.2,.2c-.1,.3-.3,.5-.4,.6s-.3,.4-.59,.4Z"/>
    <path class="cls-1" d="M105.67,16.83q-.1,0-.2-.1c0-.1-.1-.1-.1-.2s0-.2,.1-.2c0-.1,.1-.1,.2-.1s.1,0,.2,.1c0,.1,.1,.1,.1,.2s0,.2-.1,.2q-.1,.1-.2,.1Zm-.1,5.48v-4.38h.3v4.38h-.3Z"/>
    <path class="cls-1" d="M108.34,17.93c.2,0,.4,.1,.59,.2,.2,.1,.3,.3,.4,.6,.1,.3,.1,.6,.1,1v2.59h-.3v-2.49c0-.5-.1-.9-.2-1.1-.2-.3-.4-.4-.69-.4-.2,0-.4,.1-.59,.2-.2,.1-.3,.3-.4,.6-.1,.3-.1,.6-.1,.9v2.29h-.2v-4.38h.3v1.1c.1-.3,.2-.6,.4-.8,.1-.2,.39-.3,.69-.3Z"/>
    <path class="cls-1" d="M111.59,22.21c-.3,0-.49-.1-.69-.3-.2-.2-.4-.4-.49-.8-.1-.3-.2-.7-.2-1.1s.1-.8,.2-1.1c.1-.3,.3-.6,.49-.8s.4-.3,.69-.3,.49,.1,.69,.3,.4,.4,.49,.7c.1,.3,.2,.7,.2,1.1s-.1,.8-.2,1.1c-.1,.3-.3,.6-.49,.7-.2,.4-.4,.5-.69,.5Zm.1,1.79c-.3,0-.49-.1-.69-.2s-.4-.3-.59-.5l.1-.3c.1,.2,.3,.4,.49,.5s.4,.2,.59,.2c.4,0,.69-.1,.79-.4,.2-.3,.3-.7,.3-1.29v-1.2l.1-.7v-2.09h.3v3.88c0,.7-.1,1.29-.3,1.59-.3,.3-.59,.5-1.09,.5Zm-.1-2.19c.2,0,.4-.1,.59-.2,.2-.1,.3-.4,.4-.6,.1-.3,.1-.6,.1-.9s0-.7-.1-.9c-.1-.3-.2-.5-.4-.6s-.4-.2-.59-.2-.4,.1-.59,.2c-.2,.1-.3,.4-.4,.6-.1,.3-.1,.6-.1,.9s0,.6,.1,.9,.2,.5,.4,.6c.2,.1,.39,.2,.59,.2Z"/>
    <path class="cls-1" d="M115.54,22.31v-6.27h.3v6.27h-.3Z"/>
    <path class="cls-1" d="M117.12,16.83q-.1,0-.2-.1c0-.1-.1-.1-.1-.2s0-.2,.1-.2c0-.1,.1-.1,.2-.1s.1,0,.2,.1c0,.1,.1,.1,.1,.2s0,.2-.1,.2c-.1,.1-.2,.1-.2,.1Zm-.2,5.48v-4.38h.3v4.38h-.3Z"/>
    <path class="cls-1" d="M119.1,22.31l-1.28-4.38h.3l1.19,4.18h-.1l1.19-4.18h.3l-1.28,4.38s-.3,0-.3,0Z"/>
    <path class="cls-1" d="M122.26,22.41c-.3,0-.49-.1-.69-.3-.2-.2-.4-.5-.49-.8s-.2-.7-.2-1.2c0-.4,.1-.8,.2-1.2,.1-.3,.3-.6,.49-.8,.2-.2,.4-.3,.69-.3s.49,.1,.69,.3c.2,.2,.4,.4,.49,.8,.1,.3,.2,.7,.2,1.2v.2h-2.47v-.3h2.27l-.1,.2c0-.3,0-.7-.1-.9-.1-.3-.2-.5-.4-.6-.2-.2-.3-.2-.59-.2-.2,0-.4,.1-.59,.2-.2,.2-.3,.4-.4,.6-.1,.3-.1,.6-.1,.9v.1c0,.4,.1,.7,.2,1,.1,.3,.2,.5,.4,.7s.4,.2,.59,.2,.3-.1,.49-.2,.3-.3,.4-.5l.2,.3c-.1,.2-.3,.4-.49,.5-.3,0-.49,.1-.69,.1Z"/>
    <path class="cls-1" d="M125.02,22.41c-.2,0-.4-.1-.69-.2-.2-.1-.4-.2-.49-.4l.1-.3c.1,.1,.3,.3,.4,.4,.2,.1,.4,.2,.59,.2,.3,0,.49-.1,.59-.2,.1-.2,.2-.4,.2-.6s0-.3-.1-.4-.2-.2-.3-.2c-.1-.1-.2-.1-.4-.1-.1,0-.3-.1-.4-.1s-.3-.1-.4-.2c-.1-.1-.2-.2-.3-.4-.1-.1-.1-.3-.1-.6,0-.2,0-.4,.1-.6s.2-.3,.4-.4,.4-.2,.59-.2,.4,0,.49,.1c.2,.1,.3,.2,.4,.3l-.1,.3c-.1-.1-.3-.2-.4-.3-.1-.1-.3-.1-.4-.1-.3,0-.49,.1-.59,.2-.1,.2-.2,.4-.2,.6s0,.3,.1,.4,.2,.2,.3,.3c.1,.1,.2,.1,.4,.1,.1,0,.3,.1,.4,.1s.3,.1,.4,.2c.1,.1,.2,.2,.3,.3s.1,.3,.1,.6c0,.2,0,.5-.1,.6-.1,.2-.2,.3-.4,.4-.1,.1-.3,.2-.49,.2Z"/>
  </g>
  <g>
    <path class="cls-1" d="M29.73,.4V13.05h-2.17V.4h2.17Z"/>
    <path class="cls-1" d="M51.55,13.05h-2.37l3.85-10.56c.49-1.39,1.28-2.29,2.96-2.29,1.88,0,2.77,1.1,2.77,2.79v7.47c0,.4,.3,.7,.59,.7s.59-.2,.69-.5l3.06-8.07c.49-1.39,1.28-2.29,2.96-2.29,1.88,0,2.77,1.1,2.77,2.79V13.05h-2.17V3.09c0-.5-.3-.7-.59-.7s-.59,.2-.69,.5l-3.06,8.07c-.49,1.39-1.28,2.29-2.96,2.29-1.88,0-2.77-1.1-2.77-2.79V2.99c0-.5-.3-.7-.69-.7-.3,0-.59,.2-.69,.5l-3.65,10.26Z"/>
    <path class="cls-1" d="M82.46,.4V2.59h-6.22c-1.28,0-1.88,.6-1.88,1.59s.69,1.49,1.88,1.49h6.12v1.99h-6.22c-1.28,0-1.88,.5-1.88,1.49s.59,1.59,1.88,1.59h6.32v2.29h-6.32c-2.96,0-4.15-1.49-4.15-3.49,0-1.39,.69-2.39,1.78-2.89-1.19-.5-1.78-1.49-1.78-2.89,0-1.99,1.28-3.49,4.15-3.49l6.32,.1h0Z"/>
    <path class="cls-1" d="M90.95,.4c3.65,0,5.63,2.09,5.63,6.27s-1.98,6.27-5.63,6.27h-4.44c-.69,0-1.09-.3-1.09-1V1.39c0-.7,.3-1,1.09-1h4.44Zm-3.26,10.16c0,.2,.1,.2,.2,.2h3.06c2.47,0,3.46-1.2,3.46-4.08s-.99-4.08-3.46-4.08h-3.06c-.2,0-.2,.1-.2,.2v7.77Z"/>
    <path class="cls-1" d="M110.11,.4V2.59h-6.22c-1.28,0-1.88,.6-1.88,1.59s.69,1.49,1.88,1.49h6.12v1.99h-6.22c-1.28,0-1.88,.5-1.88,1.49s.59,1.59,1.88,1.59h6.32v2.29h-6.32c-2.96,0-4.15-1.49-4.15-3.49,0-1.39,.69-2.39,1.78-2.89-1.19-.5-1.78-1.49-1.78-2.89,0-1.99,1.28-3.49,4.15-3.49l6.32,.1h0Z"/>
    <path class="cls-1" d="M116.33,.4l3.85,4.68L124.23,.4h2.67l-5.33,6.17,5.43,6.37h-2.67l-4.15-4.98-4.25,4.98h-2.67l5.63-6.57L113.87,.3l2.47,.1h0Z"/>
    <g>
      <path class="cls-1" d="M46.22,6.47c0,1.2-.3,2.29-.89,3.19h0c-.89-.1-1.78-.4-2.57-.9-.4-.2-.69-.5-.89-.8-.3-.3-.49-.8-.69-1.2-.2-.4-.4-.8-.59-1.1-.3-.3-.59-.6-.89-.9-.69-.5-1.38-.8-2.17-1-1.09-.2-2.17-.1-3.26,0,.99-2.19,3.16-3.78,5.73-3.78,3.36,.1,6.22,2.99,6.22,6.47Z"/>
      <path class="cls-2" d="M44.54,10.66c-.1,.1-.2,.3-.3,.4-1.19,1.69-3.06,2.79-5.23,2.79-3.46,0-6.32-2.89-6.32-6.37,0-.8,.1-1.49,.4-2.19,0-.1,.1-.3,.2-.4,1.09-.2,2.17-.3,3.26,0,.79,.2,1.58,.5,2.17,1,.3,.2,.59,.5,.89,.9,.3,.4,.49,.7,.59,1.1,.2,.4,.4,.8,.69,1.2,.3,.3,.59,.6,.89,.8,.99,.3,1.88,.6,2.77,.8h0Z"/>
    </g>
  </g>
</svg>