<svg width="1440" height="1801" viewBox="0 0 1440 1801" fill="none" xmlns="http://www.w3.org/2000/svg">
<rect width="1440" height="1801" fill="url(#paint0_linear_0_1)"/>
<g opacity="0.2">
<g clip-path="url(#clip0_0_1)">
<path d="M474.621 776.674C551.467 710.786 570.864 639.598 621.079 643.679C644.239 645.561 645.087 661.119 679.668 679.751C753.626 719.506 863.886 710.018 900.508 657.223C920.329 628.625 903.899 608.562 923.058 589.586C960.872 552.11 1084.7 571.511 1134.86 654.943C1175.75 722.925 1158.71 818.576 1107.83 860.054C1054.7 903.281 1005.26 854.753 893.75 887.114C788.948 917.619 722.649 992.597 706.723 1011.07C629.877 1100.23 653.487 1155.17 594.051 1189.12C520.358 1231.18 395.311 1197.31 328.137 1114.75C278.107 1053.18 250.92 953.425 289.846 887.167C326.043 825.361 382.38 855.627 474.621 776.674Z" stroke="#00A79D" stroke-miterlimit="10"/>
<path d="M476.847 781.338C551.653 717.306 570.414 648.132 619.224 652.081C641.722 653.936 642.543 669.043 676.17 687.145C748.034 725.866 855.221 716.564 890.809 665.226C910.074 637.451 894.121 617.944 912.723 599.524C949.503 563.082 1069.86 581.953 1118.62 663.133C1158.37 729.206 1141.88 822.153 1092.33 862.492C1040.69 904.5 992.617 857.191 884.237 888.756C782.377 918.414 717.932 991.325 702.457 1009.27C627.651 1095.93 650.731 1149.34 592.938 1182.34C521.391 1223.2 399.842 1190.29 334.47 1110.03C285.765 1050.19 259.426 953.266 297.372 888.756C332.509 828.673 387.282 858.012 476.847 781.338Z" stroke="#00A791" stroke-miterlimit="10"/>
<path d="M481.564 790.721C552.05 730.346 569.725 665.174 615.727 668.805C636.925 670.528 637.694 684.707 669.386 701.828C737.117 738.324 838.103 729.551 871.65 681.182C889.829 655.023 874.777 636.63 892.293 619.244C926.953 585.028 1040.37 602.812 1086.32 679.221C1123.76 741.504 1108.26 829.098 1061.57 867.104C1012.89 906.7 967.602 862.148 865.476 891.858C769.472 919.819 708.737 988.516 694.163 1005.4C623.676 1087.08 645.405 1137.41 590.95 1168.5C523.458 1207.04 408.984 1176 347.375 1100.39C301.479 1043.99 276.65 952.657 312.291 891.858C345.467 835.326 397.06 863.049 481.564 790.721Z" stroke="#00A676" stroke-miterlimit="10"/>
<path d="M483.871 795.384C552.211 736.891 569.33 673.68 613.927 677.311C634.49 678.981 635.126 692.789 665.944 709.327C731.607 744.71 829.52 736.202 862.034 689.317C879.629 663.953 865.028 646.117 882.04 629.287C915.614 595.999 1025.58 613.226 1070.18 687.33C1106.46 747.678 1091.38 832.595 1046.17 869.435C998.979 907.838 955.07 864.638 856.071 893.447C763.008 920.533 704.128 987.137 690.004 1003.52C621.664 1082.71 642.731 1131.5 589.945 1161.64C524.547 1198.98 413.518 1168.9 353.816 1095.59C309.298 1040.94 285.238 952.47 319.792 893.447C351.935 838.638 401.964 865.512 483.871 795.384Z" stroke="#00A568" stroke-miterlimit="10"/>
<path d="M488.48 804.767C552.528 749.932 568.559 690.802 610.374 694.115C629.639 695.706 630.328 708.613 659.105 724.117C720.635 757.3 812.347 749.348 842.82 705.379C859.302 681.526 845.629 664.908 861.555 649.139C893.035 617.944 996.035 634.085 1037.77 703.498C1071.79 760.056 1057.7 839.619 1015.27 874.127C971.1 910.092 929.948 869.621 837.176 896.628C749.995 922.018 694.825 984.408 681.576 999.753C617.582 1073.96 637.323 1119.65 587.85 1147.88C526.532 1182.89 422.578 1154.85 366.64 1085.94C324.931 1034.74 302.38 951.755 334.841 896.549C364.891 845.264 411.767 870.443 488.48 804.767Z" stroke="#00A651" stroke-miterlimit="10"/>
<path d="M498.207 804.768C563.234 749.111 579.558 688.948 621.982 692.42C641.564 694.01 642.253 707.129 671.481 722.872C733.965 756.532 827.134 748.448 858.111 703.843C874.859 679.672 860.973 662.71 877.137 646.701C909.121 614.897 1013.74 631.435 1056.14 701.935C1090.58 759.368 1076.35 840.177 1033.27 875.241C988.379 911.762 946.617 870.656 852.388 898.087C763.829 923.875 707.785 987.244 694.35 1002.83C629.322 1078.2 649.302 1124.74 599.14 1153.29C536.868 1188.83 431.271 1160.15 374.458 1090.45C332.06 1038.42 309.192 954.168 342.077 898.087C372.656 845.928 420.274 871.504 498.207 804.768Z" stroke="#009462" stroke-miterlimit="10"/>
<path d="M507.931 804.794C573.965 748.262 590.527 687.171 633.614 690.696C653.488 692.313 654.203 705.644 683.961 721.626C747.558 755.815 842.025 747.599 873.453 702.278C890.465 677.763 876.368 660.535 892.797 644.262C925.258 612.114 1031.52 628.758 1074.55 700.344C1109.64 758.651 1095.09 840.812 1051.36 876.353C1005.76 913.458 963.336 871.688 867.65 899.543C777.74 925.729 720.847 990.079 707.174 1005.93C641.166 1082.44 661.517 1129.57 610.507 1158.69C547.255 1194.79 440.041 1165.72 382.327 1094.87C339.32 1042.05 316.08 956.473 349.469 899.543C380.446 846.59 428.806 872.536 507.931 804.794Z" stroke="#008273" stroke-miterlimit="10"/>
<path d="M517.656 804.795C584.697 747.415 601.524 685.529 645.247 688.975C665.438 690.618 666.154 704.135 696.283 720.381C760.701 755.074 856.759 746.885 888.663 700.742C905.94 675.855 891.631 658.337 908.299 641.852C941.263 609.199 1049.22 626.109 1092.83 698.781C1128.42 757.99 1113.66 841.316 1069.28 877.441C1022.98 915.102 979.924 872.723 882.78 901.002C791.493 927.506 733.725 992.916 719.84 1009C652.825 1086.69 673.494 1134.55 621.795 1164.1C557.615 1200.76 448.733 1171.23 390.171 1099.3C346.501 1045.68 322.891 958.833 356.809 901.002C388.236 847.227 437.312 873.598 517.656 804.795Z" stroke="#00707E" stroke-miterlimit="10"/>
<path d="M537.107 804.847C606.163 745.718 623.466 681.871 668.54 685.582C689.315 687.278 690.057 701.219 721.087 717.942C787.334 753.669 886.386 745.082 919.244 697.72C937.025 672.065 922.291 654.069 939.463 637.054C973.407 603.394 1084.52 620.834 1129.51 695.679C1166.18 756.637 1151 842.482 1105.26 879.719C1057.57 918.494 1013.23 874.843 913.176 903.97C819.132 931.348 759.643 998.64 745.36 1015.28C676.331 1095.3 697.662 1144.59 644.268 1175.05C578.021 1212.79 466.011 1182.39 405.78 1108.31C360.732 1053.08 336.512 963.603 371.332 904.049C403.792 848.525 454.352 875.691 537.107 804.847Z" stroke="#8442D7" stroke-miterlimit="10"/>
<path d="M546.831 804.848C616.894 744.87 634.462 680.096 680.173 683.806C701.372 685.529 702.008 699.709 733.488 716.644C800.821 752.901 901.171 744.181 934.533 696.104C952.579 670.104 937.633 651.817 955.043 634.563C989.491 600.427 1102.19 618.104 1147.87 694.063C1184.97 755.949 1169.66 843.013 1123.26 880.754C1074.9 920.111 1029.88 875.85 928.385 905.375C832.99 933.151 772.6 1001.42 758.105 1018.23C688.069 1099.41 709.666 1149.42 655.555 1180.32C588.461 1218.59 474.702 1187.77 413.49 1112.61C367.86 1056.58 343.189 965.777 378.618 905.375C411.582 849.188 462.857 876.725 546.831 804.848Z" stroke="#2E3192" stroke-miterlimit="10"/>
<path d="M546.752 816.881C614.96 758.573 632.052 695.389 676.596 699.02C697.132 700.689 697.795 714.471 728.533 730.983C794.064 766.285 891.818 757.804 924.279 710.999C941.847 685.662 927.299 667.878 944.259 651.075C977.806 617.84 1087.54 635.04 1132.03 709.011C1168.25 769.254 1153.23 854.038 1108.05 890.799C1060.96 929.123 1017.13 886.002 918.29 914.652C825.386 941.685 766.612 1008.16 752.514 1024.54C684.307 1103.57 705.32 1152.26 652.641 1182.36C587.322 1219.63 476.531 1189.63 416.803 1116.42C372.471 1062.09 348.463 973.595 382.964 914.784C415.054 860.055 464.978 886.876 546.752 816.881Z" stroke="#284795" stroke-miterlimit="10"/>
<path d="M546.647 828.86C612.894 772.036 629.668 710.654 672.993 714.179C692.973 715.796 693.688 729.207 723.526 745.268C787.281 779.722 882.518 771.4 913.998 725.841C931.09 701.192 916.913 683.886 933.421 667.533C966.068 635.199 1072.86 651.922 1116.1 723.906C1151.37 782.531 1136.77 865.01 1092.78 900.79C1046.97 938.08 1004.33 896.125 908.168 924.113C817.755 950.431 760.571 1015.13 746.845 1031.03C680.598 1107.89 700.949 1155.33 649.674 1184.59C586.077 1220.87 478.307 1191.67 420.328 1120.45C377.083 1067.39 353.737 981.387 387.284 924.272C418.553 870.92 467.098 897.026 546.647 828.86Z" stroke="#215C99" stroke-miterlimit="10"/>
<path d="M546.566 840.946C611.117 785.712 627.281 726.027 669.387 729.446C688.811 731.009 689.526 744.049 718.516 759.686C780.523 793.08 873.003 785.076 903.715 740.789C920.33 716.936 906.55 699.974 922.608 684.072C954.407 652.639 1058.18 668.938 1100.15 738.881C1134.44 795.89 1120.24 876.089 1077.49 910.888C1032.95 947.145 991.478 906.33 897.965 933.575C810.069 959.151 754.475 1022.04 741.119 1037.52C676.595 1112.29 696.495 1158.38 646.652 1186.82C584.857 1222.09 480.055 1193.71 423.665 1124.45C381.612 1072.82 358.903 989.286 391.523 933.628C421.969 881.867 469.217 907.178 546.566 840.946Z" stroke="#186E9B" stroke-miterlimit="10"/>
<path d="M546.487 852.977C609.182 799.308 624.896 741.318 665.731 744.658C684.598 746.195 685.26 758.837 713.428 774.024C773.66 806.49 863.49 798.698 893.327 755.683C909.492 732.387 896.11 715.928 911.691 700.583C942.509 670.051 1043.39 685.873 1084.25 753.828C1117.56 809.22 1103.75 887.114 1062.23 920.932C1018.96 956.129 978.68 916.506 887.816 942.957C802.437 967.817 748.433 1028.91 735.449 1043.93C672.938 1116.58 692.203 1161.35 643.79 1188.99C583.77 1223.26 481.962 1195.67 427.19 1128.4C386.355 1078.26 364.282 996.997 395.974 942.877C425.441 892.653 471.337 917.301 546.487 852.977Z" stroke="#09809E" stroke-miterlimit="10"/>
<path d="M546.381 865.009C607.249 812.956 622.592 756.636 662.339 759.949C680.677 761.433 681.313 773.731 708.686 788.467C767.142 819.953 854.428 812.32 883.312 770.63C898.972 748.049 885.961 732.174 901.119 717.173C931.036 687.515 1028.95 702.887 1068.62 768.854C1100.94 822.603 1087.56 898.244 1047.23 931.029C1005.23 965.218 966.12 926.762 877.959 952.417C795.071 976.562 742.657 1035.85 730.07 1050.48C669.123 1120.98 687.964 1164.44 640.955 1191.27C582.658 1224.53 483.871 1197.76 430.688 1132.46C390.94 1083.79 369.742 1004.92 400.4 952.444C428.913 903.518 473.457 927.451 546.381 865.009Z" stroke="#00949E" stroke-miterlimit="10"/>
<path d="M546.3 877.042C605.313 826.526 620.126 771.956 658.628 775.083C676.382 776.514 677.018 788.335 703.676 802.726C760.383 833.285 844.94 825.943 873.029 785.446C888.239 763.528 875.679 748.129 890.306 733.605C919.322 704.849 1014.27 719.744 1052.74 783.723C1084.09 835.856 1071.11 909.191 1032.02 940.995C991.266 974.151 953.346 936.834 867.729 961.747C787.359 985.229 736.534 1042.64 724.292 1056.79C665.279 1125.19 683.484 1167.31 637.88 1193.33C581.385 1225.59 485.539 1199.62 433.84 1136.3C395.417 1089.1 374.642 1012.63 404.48 961.747C432.356 914.385 475.576 937.523 546.3 877.042Z" stroke="#00A79D" stroke-miterlimit="10"/>
<path d="M551.469 872.377C608.812 823.266 623.201 770.206 660.643 773.254C677.894 774.659 678.503 786.241 704.313 800.129C759.404 829.813 841.603 822.683 868.896 783.326C883.683 762.123 871.546 747.069 885.696 732.969C913.891 705.008 1006.19 719.479 1043.58 781.682C1074.05 832.33 1061.44 903.598 1023.44 934.554C983.847 966.782 946.988 930.526 863.862 954.697C785.744 977.437 736.324 1033.36 724.452 1047.11C667.109 1113.59 684.704 1154.53 640.478 1179.82C585.493 1211.14 492.404 1185.91 442.401 1124.35C405.064 1078.47 384.846 1004.15 413.862 954.723C440.705 908.66 482.705 931.215 551.469 872.377Z" stroke="#00A791" stroke-miterlimit="10"/>
<path d="M556.609 867.688C612.256 819.981 626.274 768.459 662.604 771.427C679.377 772.779 679.987 784.043 705.001 797.533C758.529 826.369 838.343 819.451 864.868 781.207C879.204 760.534 867.306 745.984 881.164 732.255C908.564 705.142 998.183 719.189 1034.51 779.59C1064.08 828.781 1051.84 898.008 1014.93 928.009C976.48 959.284 940.733 924.087 859.966 947.569C784.1 969.673 736.111 1023.95 724.584 1037.31C668.937 1101.85 686.187 1141.6 643.074 1166.25C589.732 1196.7 499.266 1172.19 450.588 1112.42C414.285 1067.84 394.676 995.673 422.844 947.622C449.051 903.07 489.832 924.856 556.609 867.688Z" stroke="#00A684" stroke-miterlimit="10"/>
<path d="M561.644 862.995C615.701 816.72 629.268 766.734 664.538 769.597C680.808 770.922 681.391 781.841 705.69 794.934C757.627 822.895 835.083 816.137 860.813 779.032C874.725 758.969 863.198 744.869 876.712 731.538C903.211 705.22 990.259 718.842 1025.5 777.468C1054.2 825.174 1042.3 892.387 1006.5 921.514C969.193 951.887 934.453 917.724 856.149 940.517C782.536 961.959 735.952 1014.73 724.769 1027.58C670.712 1090.24 687.38 1128.82 645.618 1152.65C593.866 1182.2 506.076 1158.4 458.855 1100.41C423.639 1057.19 404.613 987.137 431.933 940.517C457.398 897.211 496.987 918.466 561.644 862.995Z" stroke="#00A676" stroke-miterlimit="10"/>
<path d="M581.305 857.245C631.175 814.548 643.788 768.432 676.196 771.082C691.221 772.301 691.751 782.372 714.169 794.431C762.078 820.246 833.545 814.044 857.262 779.828C870.113 761.276 859.461 748.315 871.862 736.018C896.4 711.714 976.611 724.303 1009.13 778.423C1035.62 822.472 1024.65 884.437 991.61 911.338C957.161 939.326 925.151 907.813 852.889 928.857C784.973 948.629 742.019 997.209 731.684 1009.16C681.84 1066.97 697.236 1102.56 658.681 1124.56C610.983 1151.8 529.95 1129.86 486.439 1076.35C453.952 1036.46 436.41 971.846 461.61 928.857C485.035 888.784 521.524 908.37 581.305 857.245Z" stroke="#009462" stroke-miterlimit="10"/>
<path d="M585.494 865.514C636.132 822.181 648.825 775.402 681.869 778.053C697.106 779.298 697.636 789.529 720.425 801.906C769.076 828.118 841.629 821.836 865.717 787.09C878.754 768.273 867.969 755.074 880.556 742.591C905.438 717.916 986.922 730.691 1019.94 785.606C1046.81 830.318 1035.68 893.263 1002.13 920.562C967.18 949 934.64 916.984 861.265 938.346C792.369 958.435 748.672 1007.78 738.205 1019.92C687.566 1078.6 703.174 1114.75 664.009 1137.07C615.517 1164.76 533.291 1142.37 489.118 1088.14C456.154 1047.65 438.32 981.997 463.918 938.346C487.608 897.557 524.679 917.487 585.494 865.514Z" stroke="#008273" stroke-miterlimit="10"/>
<path d="M589.44 873.915C640.874 829.892 653.752 782.345 687.299 785.075C702.775 786.347 703.331 796.737 726.438 809.167C775.831 835.67 849.498 829.389 873.956 794.113C887.205 775.03 876.235 761.62 889.007 749.057C914.287 724.011 996.989 736.971 1030.51 792.708C1057.8 838.135 1046.41 902.008 1012.44 929.731C976.956 958.593 943.939 926.1 869.345 947.806C799.442 967.975 755.083 1018.07 744.484 1030.29C693.076 1089.86 708.922 1126.55 669.201 1149.23C619.966 1177.33 536.496 1154.69 491.66 1099.54C458.166 1058.43 440.067 991.802 466.062 947.488C490.097 906.328 527.831 926.551 589.44 873.915Z" stroke="#00707E" stroke-miterlimit="10"/>
<path d="M593.443 882.104C645.619 837.419 658.709 789.156 692.76 791.992C708.474 793.264 709.03 803.813 732.508 816.428C782.643 843.435 857.396 836.968 882.252 801.162C895.686 781.788 884.557 768.165 897.515 755.311C923.192 729.894 1007.14 743.067 1041.14 799.625C1068.86 845.714 1057.38 910.568 1022.8 938.689C986.789 968.001 953.268 935.031 877.667 957.029C806.598 977.702 761.656 1028.59 750.845 1041.07C698.669 1101.55 714.754 1138.79 674.449 1161.79C624.499 1190.31 539.757 1167.36 494.258 1111.44C460.287 1069.7 441.897 1002.06 468.29 957.082C492.748 915.127 530.986 935.641 593.443 882.104Z" stroke="#005E88" stroke-miterlimit="10"/>
<path d="M597.604 890.375C650.601 845.054 663.85 796.075 698.298 798.885C714.198 800.183 714.807 810.891 738.629 823.692C789.48 851.097 865.346 844.524 890.573 808.187C904.193 788.522 892.905 774.714 906.074 761.674C932.096 735.886 1017.37 749.244 1051.82 806.73C1079.93 853.482 1068.27 919.29 1033.27 947.834C996.7 977.598 962.675 944.124 885.962 966.387C813.859 987.377 768.228 1038.98 757.284 1051.67C704.287 1113.06 720.663 1150.85 679.749 1174.2C629.058 1203.14 543.069 1179.85 496.909 1123.02C462.461 1080.62 443.779 1012.05 470.41 966.387C495.398 923.902 534.139 944.707 597.604 890.375Z" stroke="#1B4A8D" stroke-miterlimit="10"/>
<path d="M601.683 898.669C655.396 852.686 668.883 802.992 703.915 805.907C720.105 807.206 720.688 818.072 744.829 831.059C796.448 858.861 873.4 852.262 898.971 815.342C912.83 795.385 901.356 781.365 914.711 768.14C941.21 741.954 1027.57 755.524 1062.57 813.752C1091.11 861.22 1079.29 927.982 1043.71 956.871C1006.61 987.058 972.16 953.107 894.254 975.768C821.092 996.97 774.825 1049.42 763.696 1062.3C710.036 1124.53 726.544 1162.8 685.048 1186.66C633.614 1216.02 546.38 1192.38 499.557 1134.74C464.579 1091.77 445.659 1022.15 472.82 975.847C498.047 932.673 537.291 953.796 601.683 898.669Z" stroke="#2E3192" stroke-miterlimit="10"/>
</g>
</g>
<defs>
<linearGradient id="paint0_linear_0_1" x1="253.5" y1="453.103" x2="1218.17" y2="628.611" gradientUnits="userSpaceOnUse">
<stop stop-color="#080D12"/>
<stop offset="1" stop-color="#102136"/>
</linearGradient>
<clipPath id="clip0_0_1">
<rect width="900" height="620.633" fill="white" transform="translate(270 553.503)"/>
</clipPath>
</defs>
</svg>
