<svg width="16" height="16" viewBox="0 0 16 16" fill="none" xmlns="http://www.w3.org/2000/svg">
<path d="M11.234 1.68386C10.6548 1.71274 10.0804 1.93861 9.60374 2.41524L1.57703 10.442C1.09178 10.9272 0.91465 11.5278 0.976806 12.0873C1.03899 12.6468 1.32221 13.165 1.72034 13.5631C2.1184 13.9612 2.63659 14.2444 3.19606 14.3066C3.75559 14.3688 4.35615 14.1916 4.84137 13.7064L11.7215 6.82642C12.3776 6.17017 12.3292 5.31642 11.8648 4.85199C11.4004 4.38761 10.5466 4.33908 9.89034 4.9953L5.30371 9.58189L5.70146 9.9797L10.2882 5.39302C10.7786 4.90255 11.2148 4.99739 11.4671 5.24964C11.7194 5.50192 11.8142 5.93814 11.3237 6.42861L4.44371 13.3086C4.06896 13.6834 3.66621 13.7929 3.25824 13.7476C2.85024 13.7023 2.43668 13.4838 2.11809 13.1653C1.79953 12.8467 1.58115 12.4331 1.53584 12.0251C1.49053 11.6171 1.60003 11.2144 1.97478 10.8396L10.0015 2.81299C10.5127 2.3018 11.1006 2.16914 11.7177 2.2733C12.3347 2.37749 12.9716 2.7408 13.4738 3.24299C13.976 3.74511 14.3393 4.38205 14.4435 4.99908C14.5476 5.61614 14.415 6.20408 13.9038 6.71533L7.02378 13.5953L7.42146 13.993L14.3015 7.11299C14.937 6.47752 15.1268 5.66799 14.9981 4.90542C14.8694 4.14286 14.4444 3.41808 13.8715 2.84524C13.2987 2.27236 12.5739 1.84742 11.8114 1.71867C11.6207 1.68649 11.4271 1.67424 11.2341 1.68386H11.234Z" fill="#00A791"/>
</svg>
