<svg width="24" height="24" viewBox="0 0 24 24" fill="none" xmlns="http://www.w3.org/2000/svg">
<path d="M12 24C5.3736 24 0 18.6264 0 12C0 5.3736 5.3736 0 12 0C18.6264 0 24 5.3736 24 12C24 18.6264 18.6264 24 12 24Z" fill="#3B579D"/>
<path d="M15.12 24.0001V14.7049H18.24L18.708 11.0833H15.12V8.76966C15.12 7.72086 15.4104 7.00566 16.9152 7.00566H18.8328V3.76806C18.5016 3.72486 17.3616 3.62646 16.0368 3.62646C13.272 3.62646 11.3784 5.31366 11.3784 8.41446V11.0857H8.25122V14.7073H11.3784V24.0001H15.12Z" fill="white"/>
</svg>
