<svg width="52" height="52" viewBox="0 0 52 52" fill="none" xmlns="http://www.w3.org/2000/svg">
<circle cx="26" cy="26" r="26" fill="#009462"/>
<path d="M26.3528 35.1314C28.8868 35.1314 30.9411 31.201 30.9411 26.3526C30.9411 21.5042 28.8868 17.5738 26.3528 17.5738C23.8188 17.5738 21.7646 21.5042 21.7646 26.3526C21.7646 31.201 23.8188 35.1314 26.3528 35.1314Z" fill="white"/>
<path d="M19.4705 26.3526C19.4705 24.8691 19.8222 19.9903 24.1046 16.4114C22.9116 15.9373 21.6117 15.6467 20.2352 15.6467C14.3317 15.6467 9.5293 20.4491 9.5293 26.3526C9.5293 32.2561 14.3317 37.0585 20.2352 37.0585C21.6117 37.0585 22.9116 36.7679 24.1046 36.2938C19.8222 32.715 19.4705 27.8361 19.4705 26.3526Z" fill="white"/>
<path d="M32.4705 15.6467C31.094 15.6467 29.794 15.9373 28.6011 16.4114C32.8834 19.9903 33.2352 24.8691 33.2352 26.3526C33.2352 27.8361 32.8834 32.715 28.6011 36.2938C29.794 36.7679 31.094 37.0585 32.4705 37.0585C38.374 37.0585 43.1764 32.2561 43.1764 26.3526C43.1764 20.4491 38.374 15.6467 32.4705 15.6467Z" fill="white"/>
</svg>
