<svg width="32" height="32" viewBox="0 0 32 32" fill="none" xmlns="http://www.w3.org/2000/svg">
<rect x="0.5" y="0.5" width="31" height="31" rx="15.5" stroke="#009462"/>
<path d="M8.5 11.5C8.5 11.1022 8.65804 10.7206 8.93934 10.4393C9.22064 10.158 9.60218 10 10 10H22C22.3978 10 22.7794 10.158 23.0607 10.4393C23.342 10.7206 23.5 11.1022 23.5 11.5V20.5C23.5 20.8978 23.342 21.2794 23.0607 21.5607C22.7794 21.842 22.3978 22 22 22H10C9.60218 22 9.22064 21.842 8.93934 21.5607C8.65804 21.2794 8.5 20.8978 8.5 20.5V11.5ZM11.1393 11.5L16 15.7532L20.8608 11.5H11.1393ZM22 12.4967L16.4943 17.3148C16.3575 17.4346 16.1818 17.5006 16 17.5006C15.8182 17.5006 15.6425 17.4346 15.5057 17.3148L10 12.4967V20.5H22V12.4967Z" fill="#009462"/>
</svg>
