<svg width="12" height="15" viewBox="0 0 12 15" fill="none" xmlns="http://www.w3.org/2000/svg">
<path fill-rule="evenodd" clip-rule="evenodd" d="M9.9375 5.75001C9.93933 6.5937 9.66831 7.41536 9.16488 8.09239L6 12.3125L2.83513 8.09239C2.46457 7.59175 2.21807 7.01034 2.11587 6.39592C2.01367 5.78151 2.05869 5.15161 2.24723 4.55797C2.43577 3.96433 2.76245 3.42389 3.20044 2.98104C3.63843 2.53818 4.17523 2.20555 4.76675 2.01047C5.35827 1.81539 5.98763 1.76341 6.60314 1.85882C7.21865 1.95423 7.80274 2.1943 8.30744 2.5593C8.81214 2.92431 9.22305 3.40384 9.50642 3.95851C9.78979 4.51317 9.93753 5.12715 9.9375 5.75001ZM11.25 5.75001C11.25 6.92251 10.8659 8.00401 10.2175 8.87726L6.81988 13.4063L6 14.5L5.17925 13.4063L1.7825 8.87726C1.28785 8.21001 0.958578 7.43491 0.821738 6.61566C0.684898 5.7964 0.744395 4.95637 0.995341 4.16458C1.24629 3.37279 1.68152 2.65184 2.26528 2.06097C2.84904 1.4701 3.56466 1.02617 4.35336 0.765649C5.14205 0.505133 5.9813 0.435467 6.80215 0.562376C7.62301 0.689285 8.40203 1.00915 9.07523 1.49568C9.74842 1.98221 10.2966 2.62153 10.6746 3.36111C11.0527 4.10068 11.2499 4.91941 11.25 5.75001ZM6 7.50001C6.46413 7.50001 6.90925 7.31564 7.23744 6.98745C7.56563 6.65926 7.75 6.21414 7.75 5.75001C7.75 5.28588 7.56563 4.84076 7.23744 4.51258C6.90925 4.18439 6.46413 4.00001 6 4.00001C5.53587 4.00001 5.09075 4.18439 4.76256 4.51258C4.43438 4.84076 4.25 5.28588 4.25 5.75001C4.25 6.21414 4.43438 6.65926 4.76256 6.98745C5.09075 7.31564 5.53587 7.50001 6 7.50001Z" fill="black"/>
</svg>
