<svg width="12" height="11" viewBox="0 0 12 11" fill="none" xmlns="http://www.w3.org/2000/svg">
<path fill-rule="evenodd" clip-rule="evenodd" d="M10.8994 0.949951H1.09941C0.913763 0.949951 0.735715 1.0237 0.604439 1.15498C0.473164 1.28625 0.399414 1.4643 0.399414 1.64995V9.34995C0.399414 9.5356 0.473164 9.71365 0.604439 9.84493C0.735715 9.9762 0.913763 10.05 1.09941 10.05H10.8994C11.0851 10.05 11.2631 9.9762 11.3944 9.84493C11.5257 9.71365 11.5994 9.5356 11.5994 9.34995V1.64995C11.5994 1.4643 11.5257 1.28625 11.3944 1.15498C11.2631 1.0237 11.0851 0.949951 10.8994 0.949951ZM1.79941 8.64995V2.34995H10.1994V8.64995H1.79941Z" fill="black"/>
<path fill-rule="evenodd" clip-rule="evenodd" d="M11.3534 2.18265L6.42193 6.38265C6.29476 6.4909 6.13307 6.55011 5.96606 6.5496C5.79906 6.54909 5.63774 6.48888 5.51123 6.37985L0.642732 2.17985C0.151332 1.75635 0.450932 0.949951 1.09983 0.949951H10.8998C11.5508 0.949951 11.849 1.76055 11.3534 2.18265ZM2.98283 2.34995L5.97183 4.92805L8.99723 2.34995H2.98283Z" fill="black"/>
</svg>
