<svg width="12" height="12" viewBox="0 0 12 12" fill="none" xmlns="http://www.w3.org/2000/svg">
<path d="M11.25 7.96563L8.67477 6.81118L8.66493 6.8068C8.49753 6.73464 8.31472 6.70559 8.13321 6.7223C7.95169 6.73902 7.77726 6.80098 7.62586 6.9025C7.60464 6.91671 7.5842 6.93205 7.56461 6.94844L6.34454 7.9875C5.6336 7.60196 4.89914 6.87352 4.51305 6.17133L5.55539 4.93211C5.57215 4.91211 5.58767 4.89111 5.60188 4.86922C5.70074 4.71837 5.76077 4.54541 5.77661 4.36574C5.79245 4.18608 5.76361 4.00528 5.69266 3.83946C5.69098 3.83628 5.68951 3.83299 5.68829 3.82961L4.53438 1.25C4.43966 1.03427 4.27801 0.854771 4.07334 0.738057C3.86867 0.621344 3.63187 0.573623 3.39797 0.601957C2.60411 0.706243 1.87536 1.09593 1.34781 1.69825C0.82027 2.30057 0.530013 3.07432 0.531254 3.875C0.531254 8.33805 4.16196 11.9688 8.625 11.9688C9.42568 11.97 10.1994 11.6797 10.8018 11.1522C11.4041 10.6247 11.7938 9.8959 11.8981 9.10204C11.9264 8.86814 11.8787 8.63133 11.762 8.42667C11.6452 8.222 11.4657 8.06035 11.25 7.96563ZM8.625 10.6563C6.82717 10.6541 5.10359 9.93894 3.83233 8.66767C2.56107 7.39641 1.84592 5.67284 1.84375 3.875C1.8425 3.42192 1.99632 2.98204 2.27966 2.62847C2.56299 2.2749 2.95878 2.02892 3.40125 1.93141L4.43047 4.22829L3.38266 5.47625C3.36572 5.49644 3.35002 5.51762 3.33563 5.53969C3.23235 5.69749 3.17163 5.87932 3.15937 6.06752C3.1471 6.25571 3.18371 6.44388 3.26563 6.61375C3.78079 7.66813 4.84227 8.7225 5.90758 9.23875C6.07859 9.31983 6.26771 9.35514 6.45645 9.34124C6.64519 9.32734 6.82709 9.2647 6.98438 9.15946C7.00553 9.14519 7.0258 9.12967 7.04508 9.11297L8.27172 8.07008L10.5686 9.09875C10.4711 9.54123 10.2251 9.93702 9.87154 10.2204C9.51797 10.5037 9.07809 10.6575 8.625 10.6563Z" fill="black"/>
</svg>
