<svg width="40" height="40" viewBox="0 0 40 40" fill="none" xmlns="http://www.w3.org/2000/svg">
<path d="M7.49992 22.0834C6.35409 22.0834 5.41659 23.0209 5.41659 24.1667C5.41659 25.3125 6.35409 26.25 7.49992 26.25C8.64575 26.25 9.58325 25.3125 9.58325 24.1667C9.58325 23.0209 8.64575 22.0834 7.49992 22.0834ZM7.49992 30.4167C6.35409 30.4167 5.41659 31.3542 5.41659 32.5C5.41659 33.6459 6.35409 34.5834 7.49992 34.5834C8.64575 34.5834 9.58325 33.6459 9.58325 32.5C9.58325 31.3542 8.64575 30.4167 7.49992 30.4167ZM7.49992 13.75C6.35409 13.75 5.41659 14.6875 5.41659 15.8334C5.41659 16.9792 6.35409 17.9167 7.49992 17.9167C8.64575 17.9167 9.58325 16.9792 9.58325 15.8334C9.58325 14.6875 8.64575 13.75 7.49992 13.75ZM1.24992 14.7917C0.666585 14.7917 0.208252 15.25 0.208252 15.8334C0.208252 16.4167 0.666585 16.875 1.24992 16.875C1.83325 16.875 2.29159 16.4167 2.29159 15.8334C2.29159 15.25 1.83325 14.7917 1.24992 14.7917ZM7.49992 5.41671C6.35409 5.41671 5.41659 6.35421 5.41659 7.50004C5.41659 8.64587 6.35409 9.58337 7.49992 9.58337C8.64575 9.58337 9.58325 8.64587 9.58325 7.50004C9.58325 6.35421 8.64575 5.41671 7.49992 5.41671ZM38.7499 16.875C39.3333 16.875 39.7916 16.4167 39.7916 15.8334C39.7916 15.25 39.3333 14.7917 38.7499 14.7917C38.1666 14.7917 37.7083 15.25 37.7083 15.8334C37.7083 16.4167 38.1666 16.875 38.7499 16.875ZM24.1666 9.58337C25.3124 9.58337 26.2499 8.64587 26.2499 7.50004C26.2499 6.35421 25.3124 5.41671 24.1666 5.41671C23.0208 5.41671 22.0833 6.35421 22.0833 7.50004C22.0833 8.64587 23.0208 9.58337 24.1666 9.58337ZM24.1666 2.29171C24.7499 2.29171 25.2083 1.83337 25.2083 1.25004C25.2083 0.666707 24.7499 0.208374 24.1666 0.208374C23.5833 0.208374 23.1249 0.666707 23.1249 1.25004C23.1249 1.83337 23.5833 2.29171 24.1666 2.29171ZM1.24992 23.125C0.666585 23.125 0.208252 23.5834 0.208252 24.1667C0.208252 24.75 0.666585 25.2084 1.24992 25.2084C1.83325 25.2084 2.29159 24.75 2.29159 24.1667C2.29159 23.5834 1.83325 23.125 1.24992 23.125ZM15.8333 37.7084C15.2499 37.7084 14.7916 38.1667 14.7916 38.75C14.7916 39.3334 15.2499 39.7917 15.8333 39.7917C16.4166 39.7917 16.8749 39.3334 16.8749 38.75C16.8749 38.1667 16.4166 37.7084 15.8333 37.7084ZM15.8333 2.29171C16.4166 2.29171 16.8749 1.83337 16.8749 1.25004C16.8749 0.666707 16.4166 0.208374 15.8333 0.208374C15.2499 0.208374 14.7916 0.666707 14.7916 1.25004C14.7916 1.83337 15.2499 2.29171 15.8333 2.29171ZM15.8333 9.58337C16.9791 9.58337 17.9166 8.64587 17.9166 7.50004C17.9166 6.35421 16.9791 5.41671 15.8333 5.41671C14.6874 5.41671 13.7499 6.35421 13.7499 7.50004C13.7499 8.64587 14.6874 9.58337 15.8333 9.58337ZM15.8333 21.0417C14.1041 21.0417 12.7083 22.4375 12.7083 24.1667C12.7083 25.8959 14.1041 27.2917 15.8333 27.2917C17.5624 27.2917 18.9583 25.8959 18.9583 24.1667C18.9583 22.4375 17.5624 21.0417 15.8333 21.0417ZM32.4999 22.0834C31.3541 22.0834 30.4166 23.0209 30.4166 24.1667C30.4166 25.3125 31.3541 26.25 32.4999 26.25C33.6458 26.25 34.5833 25.3125 34.5833 24.1667C34.5833 23.0209 33.6458 22.0834 32.4999 22.0834ZM32.4999 30.4167C31.3541 30.4167 30.4166 31.3542 30.4166 32.5C30.4166 33.6459 31.3541 34.5834 32.4999 34.5834C33.6458 34.5834 34.5833 33.6459 34.5833 32.5C34.5833 31.3542 33.6458 30.4167 32.4999 30.4167ZM32.4999 13.75C31.3541 13.75 30.4166 14.6875 30.4166 15.8334C30.4166 16.9792 31.3541 17.9167 32.4999 17.9167C33.6458 17.9167 34.5833 16.9792 34.5833 15.8334C34.5833 14.6875 33.6458 13.75 32.4999 13.75ZM32.4999 5.41671C31.3541 5.41671 30.4166 6.35421 30.4166 7.50004C30.4166 8.64587 31.3541 9.58337 32.4999 9.58337C33.6458 9.58337 34.5833 8.64587 34.5833 7.50004C34.5833 6.35421 33.6458 5.41671 32.4999 5.41671ZM38.7499 23.125C38.1666 23.125 37.7083 23.5834 37.7083 24.1667C37.7083 24.75 38.1666 25.2084 38.7499 25.2084C39.3333 25.2084 39.7916 24.75 39.7916 24.1667C39.7916 23.5834 39.3333 23.125 38.7499 23.125ZM24.1666 30.4167C23.0208 30.4167 22.0833 31.3542 22.0833 32.5C22.0833 33.6459 23.0208 34.5834 24.1666 34.5834C25.3124 34.5834 26.2499 33.6459 26.2499 32.5C26.2499 31.3542 25.3124 30.4167 24.1666 30.4167ZM24.1666 37.7084C23.5833 37.7084 23.1249 38.1667 23.1249 38.75C23.1249 39.3334 23.5833 39.7917 24.1666 39.7917C24.7499 39.7917 25.2083 39.3334 25.2083 38.75C25.2083 38.1667 24.7499 37.7084 24.1666 37.7084ZM15.8333 12.7084C14.1041 12.7084 12.7083 14.1042 12.7083 15.8334C12.7083 17.5625 14.1041 18.9584 15.8333 18.9584C17.5624 18.9584 18.9583 17.5625 18.9583 15.8334C18.9583 14.1042 17.5624 12.7084 15.8333 12.7084ZM15.8333 30.4167C14.6874 30.4167 13.7499 31.3542 13.7499 32.5C13.7499 33.6459 14.6874 34.5834 15.8333 34.5834C16.9791 34.5834 17.9166 33.6459 17.9166 32.5C17.9166 31.3542 16.9791 30.4167 15.8333 30.4167ZM24.1666 21.0417C22.4374 21.0417 21.0416 22.4375 21.0416 24.1667C21.0416 25.8959 22.4374 27.2917 24.1666 27.2917C25.8958 27.2917 27.2916 25.8959 27.2916 24.1667C27.2916 22.4375 25.8958 21.0417 24.1666 21.0417ZM24.1666 12.7084C22.4374 12.7084 21.0416 14.1042 21.0416 15.8334C21.0416 17.5625 22.4374 18.9584 24.1666 18.9584C25.8958 18.9584 27.2916 17.5625 27.2916 15.8334C27.2916 14.1042 25.8958 12.7084 24.1666 12.7084Z" fill="white"/>
</svg>
