<svg width="40" height="40" viewBox="0 0 40 40" fill="none" xmlns="http://www.w3.org/2000/svg">
<circle cx="20" cy="20" r="20" fill="#00A676"/>
<path d="M29.6786 22.268C30.956 22.268 32 21.248 32 20C32 18.752 30.956 17.732 29.6786 17.732C28.4012 17.732 27.3572 18.752 27.3572 20C27.3572 21.248 28.4012 22.268 29.6786 22.268ZM24.4708 22.016C25.6131 22.016 26.5343 21.116 26.5343 20C26.5343 18.884 25.6131 17.984 24.4708 17.984C23.3286 17.984 22.4074 18.884 22.4074 20C22.4074 21.116 23.3286 22.016 24.4708 22.016ZM24.4708 16.904C25.6131 16.904 26.5343 16.004 26.5343 14.888C26.5343 13.772 25.6131 12.872 24.4708 12.872C23.3286 12.872 22.4074 13.772 22.4074 14.888C22.4074 16.004 23.3286 16.904 24.4708 16.904ZM24.4708 27.116C25.6131 27.116 26.5343 26.216 26.5343 25.1C26.5343 23.984 25.6131 23.084 24.4708 23.084C23.3286 23.084 22.4074 23.984 22.4074 25.1C22.4074 26.204 23.3286 27.116 24.4708 27.116ZM19.263 21.764C20.2579 21.764 21.0686 20.972 21.0686 20C21.0686 19.028 20.2579 18.236 19.263 18.236C18.2682 18.236 17.4575 19.028 17.4575 20C17.4575 20.972 18.2559 21.764 19.263 21.764ZM19.263 16.652C20.2579 16.652 21.0686 15.86 21.0686 14.888C21.0686 13.916 20.2579 13.124 19.263 13.124C18.2682 13.124 17.4575 13.916 17.4575 14.888C17.4575 15.86 18.2559 16.652 19.263 16.652ZM19.263 26.876C20.2579 26.876 21.0686 26.084 21.0686 25.112C21.0686 24.14 20.2579 23.348 19.263 23.348C18.2682 23.348 17.4575 24.14 17.4575 25.112C17.4452 26.084 18.2559 26.876 19.263 26.876ZM19.263 32C20.2579 32 21.0686 31.208 21.0686 30.236C21.0686 29.264 20.2579 28.472 19.263 28.472C18.2682 28.472 17.4575 29.264 17.4575 30.236C17.4452 31.208 18.2559 32 19.263 32ZM19.263 11.528C20.2579 11.528 21.0686 10.736 21.0686 9.764C21.0686 8.792 20.2579 8 19.263 8C18.2682 8 17.4575 8.792 17.4575 9.764C17.4575 10.736 18.2559 11.528 19.263 11.528ZM14.043 21.512C14.9028 21.512 15.5906 20.828 15.5906 20C15.5906 19.172 14.8905 18.488 14.043 18.488C13.1832 18.488 12.4954 19.172 12.4954 20C12.4954 20.828 13.1832 21.512 14.043 21.512ZM14.043 26.612C14.9028 26.612 15.5906 25.928 15.5906 25.1C15.5906 24.26 14.8905 23.588 14.043 23.588C13.1832 23.588 12.4954 24.272 12.4954 25.1C12.4954 25.928 13.1832 26.612 14.043 26.612ZM14.043 16.424C14.9028 16.424 15.5906 15.74 15.5906 14.912C15.5906 14.072 14.8905 13.4 14.043 13.4C13.1832 13.4 12.4954 14.084 12.4954 14.912C12.4954 15.74 13.1832 16.424 14.043 16.424ZM9.28966 21.26C10.002 21.26 10.5793 20.696 10.5793 20C10.5793 19.304 10.002 18.74 9.28966 18.74C8.57728 18.74 8 19.304 8 20C8 20.696 8.57728 21.26 9.28966 21.26Z" fill="white"/>
</svg>
