<svg width="24" height="24" viewBox="0 0 24 24" fill="none" xmlns="http://www.w3.org/2000/svg">
<circle cx="12" cy="12" r="12" fill="#009462"/>
<path fill-rule="evenodd" clip-rule="evenodd" d="M15.9375 10.25C15.9393 11.0937 15.6683 11.9154 15.1649 12.5924L12 16.8125L8.83513 12.5924C8.46457 12.0917 8.21807 11.5103 8.11587 10.8959C8.01367 10.2815 8.05869 9.65161 8.24723 9.05797C8.43577 8.46433 8.76245 7.92389 9.20044 7.48104C9.63843 7.03818 10.1752 6.70555 10.7667 6.51047C11.3583 6.31539 11.9876 6.26341 12.6031 6.35882C13.2186 6.45423 13.8027 6.6943 14.3074 7.0593C14.8121 7.42431 15.2231 7.90384 15.5064 8.45851C15.7898 9.01317 15.9375 9.62715 15.9375 10.25ZM17.25 10.25C17.25 11.4225 16.8659 12.504 16.2175 13.3773L12.8199 17.9063L12 19L11.1793 17.9063L7.7825 13.3773C7.28785 12.71 6.95858 11.9349 6.82174 11.1157C6.6849 10.2964 6.74439 9.45637 6.99534 8.66458C7.24629 7.87279 7.68152 7.15184 8.26528 6.56097C8.84904 5.9701 9.56466 5.52617 10.3534 5.26565C11.142 5.00513 11.9813 4.93547 12.8022 5.06238C13.623 5.18928 14.402 5.50915 15.0752 5.99568C15.7484 6.48221 16.2966 7.12153 16.6746 7.86111C17.0527 8.60068 17.2499 9.41941 17.25 10.25ZM12 12C12.4641 12 12.9092 11.8156 13.2374 11.4875C13.5656 11.1593 13.75 10.7141 13.75 10.25C13.75 9.78588 13.5656 9.34076 13.2374 9.01258C12.9092 8.68439 12.4641 8.50001 12 8.50001C11.5359 8.50001 11.0908 8.68439 10.7626 9.01258C10.4344 9.34076 10.25 9.78588 10.25 10.25C10.25 10.7141 10.4344 11.1593 10.7626 11.4875C11.0908 11.8156 11.5359 12 12 12Z" fill="white"/>
</svg>
