<svg width="24" height="24" viewBox="0 0 24 24" fill="none" xmlns="http://www.w3.org/2000/svg">
<circle cx="12" cy="12" r="12" fill="#009462"/>
<path d="M17.25 13.4656L14.6748 12.3112L14.6649 12.3068C14.4975 12.2346 14.3147 12.2056 14.1332 12.2223C13.9517 12.239 13.7773 12.301 13.6259 12.4025C13.6046 12.4167 13.5842 12.432 13.5646 12.4484L12.3445 13.4875C11.6336 13.102 10.8991 12.3735 10.5131 11.6713L11.5554 10.4321C11.5722 10.4121 11.5877 10.3911 11.6019 10.3692C11.7007 10.2184 11.7608 10.0454 11.7766 9.86574C11.7924 9.68608 11.7636 9.50528 11.6927 9.33946C11.691 9.33628 11.6895 9.33299 11.6883 9.32961L10.5344 6.75C10.4397 6.53427 10.278 6.35477 10.0733 6.23806C9.86867 6.12134 9.63187 6.07362 9.39797 6.10196C8.60411 6.20624 7.87536 6.59593 7.34781 7.19825C6.82027 7.80057 6.53001 8.57432 6.53125 9.375C6.53125 13.8381 10.162 17.4688 14.625 17.4688C15.4257 17.47 16.1994 17.1797 16.8018 16.6522C17.4041 16.1247 17.7938 15.3959 17.8981 14.602C17.9264 14.3681 17.8787 14.1313 17.762 13.9267C17.6452 13.722 17.4657 13.5603 17.25 13.4656ZM14.625 16.1563C12.8272 16.1541 11.1036 15.4389 9.83233 14.1677C8.56107 12.8964 7.84592 11.1728 7.84375 9.375C7.8425 8.92192 7.99632 8.48204 8.27966 8.12847C8.56299 7.7749 8.95878 7.52892 9.40125 7.43141L10.4305 9.72829L9.38266 10.9763C9.36572 10.9964 9.35002 11.0176 9.33563 11.0397C9.23235 11.1975 9.17163 11.3793 9.15937 11.5675C9.1471 11.7557 9.18371 11.9439 9.26563 12.1138C9.78079 13.1681 10.8423 14.2225 11.9076 14.7388C12.0786 14.8198 12.2677 14.8551 12.4564 14.8412C12.6452 14.8273 12.8271 14.7647 12.9844 14.6595C13.0055 14.6452 13.0258 14.6297 13.0451 14.613L14.2717 13.5701L16.5686 14.5988C16.4711 15.0412 16.2251 15.437 15.8715 15.7204C15.518 16.0037 15.0781 16.1575 14.625 16.1563Z" fill="white"/>
</svg>
