<svg width="24" height="24" viewBox="0 0 24 24" fill="none" xmlns="http://www.w3.org/2000/svg">
<circle cx="12" cy="12" r="12" fill="#009462"/>
<path fill-rule="evenodd" clip-rule="evenodd" d="M16.8994 7.44995H7.09941C6.91376 7.44995 6.73571 7.5237 6.60444 7.65498C6.47316 7.78625 6.39941 7.9643 6.39941 8.14995V15.85C6.39941 16.0356 6.47316 16.2137 6.60444 16.3449C6.73571 16.4762 6.91376 16.55 7.09941 16.55H16.8994C17.0851 16.55 17.2631 16.4762 17.3944 16.3449C17.5257 16.2137 17.5994 16.0356 17.5994 15.85V8.14995C17.5994 7.9643 17.5257 7.78625 17.3944 7.65498C17.2631 7.5237 17.0851 7.44995 16.8994 7.44995ZM7.79941 15.15V8.84995H16.1994V15.15H7.79941Z" fill="white"/>
<path fill-rule="evenodd" clip-rule="evenodd" d="M17.3534 8.68265L12.4219 12.8827C12.2948 12.9909 12.1331 13.0501 11.9661 13.0496C11.7991 13.0491 11.6377 12.9889 11.5112 12.8799L6.64273 8.67985C6.15133 8.25635 6.45093 7.44995 7.09983 7.44995H16.8998C17.5508 7.44995 17.849 8.26055 17.3534 8.68265ZM8.98283 8.84995L11.9718 11.4281L14.9972 8.84995H8.98283Z" fill="white"/>
</svg>
