<svg width="40" height="40" viewBox="0 0 40 40" fill="none" xmlns="http://www.w3.org/2000/svg">
<circle cx="20" cy="20" r="20" fill="#67C15E"/>
<path d="M20 15.4651C16.69 15.4651 14 18.1551 14 21.4651C14 23.1251 14.68 24.6151 15.76 25.7051L17.18 24.2851C16.45 23.5651 16 22.5751 16 21.4651C16 19.2551 17.79 17.4651 20 17.4651C22.21 17.4651 24 19.2551 24 21.4651C24 22.5751 23.55 23.5651 22.82 24.2851L24.24 25.7051C25.32 24.6151 26 23.1251 26 21.4651C26 18.1551 23.31 15.4651 20 15.4651ZM20 11.4651C14.48 11.4651 10 15.9451 10 21.4651C10 24.2251 11.12 26.7251 12.93 28.5351L14.35 27.1151C12.9 25.6751 12 23.6751 12 21.4651C12 17.0451 15.58 13.4651 20 13.4651C22.53 13.4651 24.78 14.6351 26.24 16.4651H28.66C26.93 13.4751 23.7 11.4651 20 11.4651ZM20 19.4651C18.9 19.4651 18 20.3651 18 21.4651C18 22.0151 18.23 22.5151 18.59 22.8751C18.95 23.2351 19.45 23.4651 20 23.4651C20.55 23.4651 21.05 23.2351 21.41 22.8751C21.77 22.5151 22 22.0151 22 21.4651C22 20.3651 21.1 19.4651 20 19.4651ZM28 18.4651H30V24.4651H28V18.4651ZM28 26.4651H30V28.4651H28V26.4651Z" fill="white"/>
</svg>
