<svg width="40" height="40" viewBox="0 0 40 40" fill="none" xmlns="http://www.w3.org/2000/svg">
<circle cx="20" cy="20" r="20" fill="#215C99"/>
<path d="M20 15.4648C16.69 15.4648 14 18.1548 14 21.4648C14 23.1248 14.68 24.6148 15.76 25.7048L17.18 24.2848C16.45 23.5648 16 22.5748 16 21.4648C16 19.2548 17.79 17.4648 20 17.4648C22.21 17.4648 24 19.2548 24 21.4648C24 22.5748 23.55 23.5648 22.82 24.2848L24.24 25.7048C25.32 24.6148 26 23.1248 26 21.4648C26 18.1548 23.31 15.4648 20 15.4648ZM20 11.4648C14.48 11.4648 10 15.9448 10 21.4648C10 24.2248 11.12 26.7248 12.93 28.5348L14.35 27.1148C12.9 25.6748 12 23.6748 12 21.4648C12 17.0448 15.58 13.4648 20 13.4648C22.53 13.4648 24.78 14.6348 26.24 16.4648H28.66C26.93 13.4748 23.7 11.4648 20 11.4648ZM20 19.4648C18.9 19.4648 18 20.3648 18 21.4648C18 22.0148 18.23 22.5148 18.59 22.8748C18.95 23.2348 19.45 23.4648 20 23.4648C20.55 23.4648 21.05 23.2348 21.41 22.8748C21.77 22.5148 22 22.0148 22 21.4648C22 20.3648 21.1 19.4648 20 19.4648ZM28 18.4648H30V24.4648H28V18.4648ZM28 26.4648H30V28.4648H28V26.4648Z" fill="white"/>
</svg>
