<svg width="50" height="50" viewBox="0 0 50 50" fill="none" xmlns="http://www.w3.org/2000/svg">
<path d="M12.4999 27.0833C11.3541 27.0833 10.4166 28.0208 10.4166 29.1666C10.4166 30.3124 11.3541 31.2499 12.4999 31.2499C13.6458 31.2499 14.5833 30.3124 14.5833 29.1666C14.5833 28.0208 13.6458 27.0833 12.4999 27.0833ZM12.4999 35.4166C11.3541 35.4166 10.4166 36.3541 10.4166 37.4999C10.4166 38.6458 11.3541 39.5833 12.4999 39.5833C13.6458 39.5833 14.5833 38.6458 14.5833 37.4999C14.5833 36.3541 13.6458 35.4166 12.4999 35.4166ZM12.4999 18.7499C11.3541 18.7499 10.4166 19.6874 10.4166 20.8333C10.4166 21.9791 11.3541 22.9166 12.4999 22.9166C13.6458 22.9166 14.5833 21.9791 14.5833 20.8333C14.5833 19.6874 13.6458 18.7499 12.4999 18.7499ZM6.24992 19.7916C5.66659 19.7916 5.20825 20.2499 5.20825 20.8333C5.20825 21.4166 5.66659 21.8749 6.24992 21.8749C6.83325 21.8749 7.29159 21.4166 7.29159 20.8333C7.29159 20.2499 6.83325 19.7916 6.24992 19.7916ZM12.4999 10.4166C11.3541 10.4166 10.4166 11.3541 10.4166 12.4999C10.4166 13.6458 11.3541 14.5833 12.4999 14.5833C13.6458 14.5833 14.5833 13.6458 14.5833 12.4999C14.5833 11.3541 13.6458 10.4166 12.4999 10.4166ZM43.7499 21.8749C44.3333 21.8749 44.7916 21.4166 44.7916 20.8333C44.7916 20.2499 44.3333 19.7916 43.7499 19.7916C43.1666 19.7916 42.7083 20.2499 42.7083 20.8333C42.7083 21.4166 43.1666 21.8749 43.7499 21.8749ZM29.1666 14.5833C30.3124 14.5833 31.2499 13.6458 31.2499 12.4999C31.2499 11.3541 30.3124 10.4166 29.1666 10.4166C28.0208 10.4166 27.0833 11.3541 27.0833 12.4999C27.0833 13.6458 28.0208 14.5833 29.1666 14.5833ZM29.1666 7.29159C29.7499 7.29159 30.2083 6.83325 30.2083 6.24992C30.2083 5.66659 29.7499 5.20825 29.1666 5.20825C28.5833 5.20825 28.1249 5.66659 28.1249 6.24992C28.1249 6.83325 28.5833 7.29159 29.1666 7.29159ZM6.24992 28.1249C5.66659 28.1249 5.20825 28.5833 5.20825 29.1666C5.20825 29.7499 5.66659 30.2083 6.24992 30.2083C6.83325 30.2083 7.29159 29.7499 7.29159 29.1666C7.29159 28.5833 6.83325 28.1249 6.24992 28.1249ZM20.8333 42.7083C20.2499 42.7083 19.7916 43.1666 19.7916 43.7499C19.7916 44.3333 20.2499 44.7916 20.8333 44.7916C21.4166 44.7916 21.8749 44.3333 21.8749 43.7499C21.8749 43.1666 21.4166 42.7083 20.8333 42.7083ZM20.8333 7.29159C21.4166 7.29159 21.8749 6.83325 21.8749 6.24992C21.8749 5.66659 21.4166 5.20825 20.8333 5.20825C20.2499 5.20825 19.7916 5.66659 19.7916 6.24992C19.7916 6.83325 20.2499 7.29159 20.8333 7.29159ZM20.8333 14.5833C21.9791 14.5833 22.9166 13.6458 22.9166 12.4999C22.9166 11.3541 21.9791 10.4166 20.8333 10.4166C19.6874 10.4166 18.7499 11.3541 18.7499 12.4999C18.7499 13.6458 19.6874 14.5833 20.8333 14.5833ZM20.8333 26.0416C19.1041 26.0416 17.7083 27.4374 17.7083 29.1666C17.7083 30.8958 19.1041 32.2916 20.8333 32.2916C22.5624 32.2916 23.9583 30.8958 23.9583 29.1666C23.9583 27.4374 22.5624 26.0416 20.8333 26.0416ZM37.4999 27.0833C36.3541 27.0833 35.4166 28.0208 35.4166 29.1666C35.4166 30.3124 36.3541 31.2499 37.4999 31.2499C38.6458 31.2499 39.5833 30.3124 39.5833 29.1666C39.5833 28.0208 38.6458 27.0833 37.4999 27.0833ZM37.4999 35.4166C36.3541 35.4166 35.4166 36.3541 35.4166 37.4999C35.4166 38.6458 36.3541 39.5833 37.4999 39.5833C38.6458 39.5833 39.5833 38.6458 39.5833 37.4999C39.5833 36.3541 38.6458 35.4166 37.4999 35.4166ZM37.4999 18.7499C36.3541 18.7499 35.4166 19.6874 35.4166 20.8333C35.4166 21.9791 36.3541 22.9166 37.4999 22.9166C38.6458 22.9166 39.5833 21.9791 39.5833 20.8333C39.5833 19.6874 38.6458 18.7499 37.4999 18.7499ZM37.4999 10.4166C36.3541 10.4166 35.4166 11.3541 35.4166 12.4999C35.4166 13.6458 36.3541 14.5833 37.4999 14.5833C38.6458 14.5833 39.5833 13.6458 39.5833 12.4999C39.5833 11.3541 38.6458 10.4166 37.4999 10.4166ZM43.7499 28.1249C43.1666 28.1249 42.7083 28.5833 42.7083 29.1666C42.7083 29.7499 43.1666 30.2083 43.7499 30.2083C44.3333 30.2083 44.7916 29.7499 44.7916 29.1666C44.7916 28.5833 44.3333 28.1249 43.7499 28.1249ZM29.1666 35.4166C28.0208 35.4166 27.0833 36.3541 27.0833 37.4999C27.0833 38.6458 28.0208 39.5833 29.1666 39.5833C30.3124 39.5833 31.2499 38.6458 31.2499 37.4999C31.2499 36.3541 30.3124 35.4166 29.1666 35.4166ZM29.1666 42.7083C28.5833 42.7083 28.1249 43.1666 28.1249 43.7499C28.1249 44.3333 28.5833 44.7916 29.1666 44.7916C29.7499 44.7916 30.2083 44.3333 30.2083 43.7499C30.2083 43.1666 29.7499 42.7083 29.1666 42.7083ZM20.8333 17.7083C19.1041 17.7083 17.7083 19.1041 17.7083 20.8333C17.7083 22.5624 19.1041 23.9583 20.8333 23.9583C22.5624 23.9583 23.9583 22.5624 23.9583 20.8333C23.9583 19.1041 22.5624 17.7083 20.8333 17.7083ZM20.8333 35.4166C19.6874 35.4166 18.7499 36.3541 18.7499 37.4999C18.7499 38.6458 19.6874 39.5833 20.8333 39.5833C21.9791 39.5833 22.9166 38.6458 22.9166 37.4999C22.9166 36.3541 21.9791 35.4166 20.8333 35.4166ZM29.1666 26.0416C27.4374 26.0416 26.0416 27.4374 26.0416 29.1666C26.0416 30.8958 27.4374 32.2916 29.1666 32.2916C30.8958 32.2916 32.2916 30.8958 32.2916 29.1666C32.2916 27.4374 30.8958 26.0416 29.1666 26.0416ZM29.1666 17.7083C27.4374 17.7083 26.0416 19.1041 26.0416 20.8333C26.0416 22.5624 27.4374 23.9583 29.1666 23.9583C30.8958 23.9583 32.2916 22.5624 32.2916 20.8333C32.2916 19.1041 30.8958 17.7083 29.1666 17.7083Z" fill="#007BB5"/>
</svg>
