<svg width="50" height="50" viewBox="0 0 50 50" fill="none" xmlns="http://www.w3.org/2000/svg">
<path d="M12.5 27.0833C11.3542 27.0833 10.4167 28.0208 10.4167 29.1666C10.4167 30.3124 11.3542 31.2499 12.5 31.2499C13.6459 31.2499 14.5834 30.3124 14.5834 29.1666C14.5834 28.0208 13.6459 27.0833 12.5 27.0833ZM12.5 35.4166C11.3542 35.4166 10.4167 36.3541 10.4167 37.4999C10.4167 38.6458 11.3542 39.5833 12.5 39.5833C13.6459 39.5833 14.5834 38.6458 14.5834 37.4999C14.5834 36.3541 13.6459 35.4166 12.5 35.4166ZM12.5 18.7499C11.3542 18.7499 10.4167 19.6874 10.4167 20.8333C10.4167 21.9791 11.3542 22.9166 12.5 22.9166C13.6459 22.9166 14.5834 21.9791 14.5834 20.8333C14.5834 19.6874 13.6459 18.7499 12.5 18.7499ZM6.25004 19.7916C5.66671 19.7916 5.20837 20.2499 5.20837 20.8333C5.20837 21.4166 5.66671 21.8749 6.25004 21.8749C6.83337 21.8749 7.29171 21.4166 7.29171 20.8333C7.29171 20.2499 6.83337 19.7916 6.25004 19.7916ZM12.5 10.4166C11.3542 10.4166 10.4167 11.3541 10.4167 12.4999C10.4167 13.6458 11.3542 14.5833 12.5 14.5833C13.6459 14.5833 14.5834 13.6458 14.5834 12.4999C14.5834 11.3541 13.6459 10.4166 12.5 10.4166ZM43.75 21.8749C44.3334 21.8749 44.7917 21.4166 44.7917 20.8333C44.7917 20.2499 44.3334 19.7916 43.75 19.7916C43.1667 19.7916 42.7084 20.2499 42.7084 20.8333C42.7084 21.4166 43.1667 21.8749 43.75 21.8749ZM29.1667 14.5833C30.3125 14.5833 31.25 13.6458 31.25 12.4999C31.25 11.3541 30.3125 10.4166 29.1667 10.4166C28.0209 10.4166 27.0834 11.3541 27.0834 12.4999C27.0834 13.6458 28.0209 14.5833 29.1667 14.5833ZM29.1667 7.29159C29.75 7.29159 30.2084 6.83325 30.2084 6.24992C30.2084 5.66659 29.75 5.20825 29.1667 5.20825C28.5834 5.20825 28.125 5.66659 28.125 6.24992C28.125 6.83325 28.5834 7.29159 29.1667 7.29159ZM6.25004 28.1249C5.66671 28.1249 5.20837 28.5833 5.20837 29.1666C5.20837 29.7499 5.66671 30.2083 6.25004 30.2083C6.83337 30.2083 7.29171 29.7499 7.29171 29.1666C7.29171 28.5833 6.83337 28.1249 6.25004 28.1249ZM20.8334 42.7083C20.25 42.7083 19.7917 43.1666 19.7917 43.7499C19.7917 44.3333 20.25 44.7916 20.8334 44.7916C21.4167 44.7916 21.875 44.3333 21.875 43.7499C21.875 43.1666 21.4167 42.7083 20.8334 42.7083ZM20.8334 7.29159C21.4167 7.29159 21.875 6.83325 21.875 6.24992C21.875 5.66659 21.4167 5.20825 20.8334 5.20825C20.25 5.20825 19.7917 5.66659 19.7917 6.24992C19.7917 6.83325 20.25 7.29159 20.8334 7.29159ZM20.8334 14.5833C21.9792 14.5833 22.9167 13.6458 22.9167 12.4999C22.9167 11.3541 21.9792 10.4166 20.8334 10.4166C19.6875 10.4166 18.75 11.3541 18.75 12.4999C18.75 13.6458 19.6875 14.5833 20.8334 14.5833ZM20.8334 26.0416C19.1042 26.0416 17.7084 27.4374 17.7084 29.1666C17.7084 30.8958 19.1042 32.2916 20.8334 32.2916C22.5625 32.2916 23.9584 30.8958 23.9584 29.1666C23.9584 27.4374 22.5625 26.0416 20.8334 26.0416ZM37.5 27.0833C36.3542 27.0833 35.4167 28.0208 35.4167 29.1666C35.4167 30.3124 36.3542 31.2499 37.5 31.2499C38.6459 31.2499 39.5834 30.3124 39.5834 29.1666C39.5834 28.0208 38.6459 27.0833 37.5 27.0833ZM37.5 35.4166C36.3542 35.4166 35.4167 36.3541 35.4167 37.4999C35.4167 38.6458 36.3542 39.5833 37.5 39.5833C38.6459 39.5833 39.5834 38.6458 39.5834 37.4999C39.5834 36.3541 38.6459 35.4166 37.5 35.4166ZM37.5 18.7499C36.3542 18.7499 35.4167 19.6874 35.4167 20.8333C35.4167 21.9791 36.3542 22.9166 37.5 22.9166C38.6459 22.9166 39.5834 21.9791 39.5834 20.8333C39.5834 19.6874 38.6459 18.7499 37.5 18.7499ZM37.5 10.4166C36.3542 10.4166 35.4167 11.3541 35.4167 12.4999C35.4167 13.6458 36.3542 14.5833 37.5 14.5833C38.6459 14.5833 39.5834 13.6458 39.5834 12.4999C39.5834 11.3541 38.6459 10.4166 37.5 10.4166ZM43.75 28.1249C43.1667 28.1249 42.7084 28.5833 42.7084 29.1666C42.7084 29.7499 43.1667 30.2083 43.75 30.2083C44.3334 30.2083 44.7917 29.7499 44.7917 29.1666C44.7917 28.5833 44.3334 28.1249 43.75 28.1249ZM29.1667 35.4166C28.0209 35.4166 27.0834 36.3541 27.0834 37.4999C27.0834 38.6458 28.0209 39.5833 29.1667 39.5833C30.3125 39.5833 31.25 38.6458 31.25 37.4999C31.25 36.3541 30.3125 35.4166 29.1667 35.4166ZM29.1667 42.7083C28.5834 42.7083 28.125 43.1666 28.125 43.7499C28.125 44.3333 28.5834 44.7916 29.1667 44.7916C29.75 44.7916 30.2084 44.3333 30.2084 43.7499C30.2084 43.1666 29.75 42.7083 29.1667 42.7083ZM20.8334 17.7083C19.1042 17.7083 17.7084 19.1041 17.7084 20.8333C17.7084 22.5624 19.1042 23.9583 20.8334 23.9583C22.5625 23.9583 23.9584 22.5624 23.9584 20.8333C23.9584 19.1041 22.5625 17.7083 20.8334 17.7083ZM20.8334 35.4166C19.6875 35.4166 18.75 36.3541 18.75 37.4999C18.75 38.6458 19.6875 39.5833 20.8334 39.5833C21.9792 39.5833 22.9167 38.6458 22.9167 37.4999C22.9167 36.3541 21.9792 35.4166 20.8334 35.4166ZM29.1667 26.0416C27.4375 26.0416 26.0417 27.4374 26.0417 29.1666C26.0417 30.8958 27.4375 32.2916 29.1667 32.2916C30.8959 32.2916 32.2917 30.8958 32.2917 29.1666C32.2917 27.4374 30.8959 26.0416 29.1667 26.0416ZM29.1667 17.7083C27.4375 17.7083 26.0417 19.1041 26.0417 20.8333C26.0417 22.5624 27.4375 23.9583 29.1667 23.9583C30.8959 23.9583 32.2917 22.5624 32.2917 20.8333C32.2917 19.1041 30.8959 17.7083 29.1667 17.7083Z" fill="#00A79D"/>
</svg>
