<svg width="52" height="52" viewBox="0 0 52 52" fill="none" xmlns="http://www.w3.org/2000/svg">
<circle cx="26" cy="26" r="26" fill="#66CAC4"/>
<path d="M31.2744 22.42C32.5407 22.42 33.5685 23.4478 33.5685 24.7141V33.5616C33.5685 35.4741 32.8087 37.3084 31.4563 38.6608C30.1039 40.0132 28.2697 40.773 26.3571 40.773C24.4445 40.773 22.6103 40.0132 21.2579 38.6608C19.9055 37.3084 19.1457 35.4741 19.1457 33.5616V24.7141C19.1457 23.4478 20.1722 22.42 21.4398 22.42H31.2744ZM12.9162 22.42L18.6607 22.4174C18.1883 22.9866 17.9039 23.6882 17.8466 24.4257L17.8335 24.7141V33.5616C17.8335 35.0468 18.2149 36.4443 18.8822 37.6608C17.9841 38.0527 17.0026 38.2147 16.0262 38.1323C15.0498 38.0498 14.1093 37.7256 13.2896 37.1887C12.4699 36.6518 11.7968 35.9192 11.3311 35.0571C10.8654 34.195 10.6217 33.2305 10.6221 32.2506V24.7141C10.6228 24.1057 10.8649 23.5224 11.2952 23.0922C11.7256 22.6621 12.3077 22.4204 12.9162 22.42ZM34.0548 22.4174L39.7901 22.42C41.0565 22.42 42.0843 23.4478 42.0843 24.7141V32.2519C42.0847 33.2314 41.8412 34.1956 41.3757 35.0574C40.9103 35.9192 40.2376 36.6516 39.4184 37.1885C38.5991 37.7253 37.6591 38.0497 36.6831 38.1324C35.7072 38.2151 34.7259 38.0535 33.8281 37.6621L33.9015 37.5284C34.4639 36.4626 34.806 35.2618 34.8689 33.9889L34.8794 33.5616V24.7141C34.8794 23.8411 34.57 23.0414 34.0548 22.4174ZM26.3532 11.9326C26.9557 11.9326 27.5523 12.0513 28.109 12.2819C28.6657 12.5125 29.1715 12.8504 29.5975 13.2765C30.0236 13.7025 30.3616 14.2083 30.5921 14.765C30.8227 15.3217 30.9414 15.9183 30.9414 16.5209C30.9414 17.1234 30.8227 17.72 30.5921 18.2767C30.3616 18.8334 30.0236 19.3392 29.5975 19.7652C29.1715 20.1913 28.6657 20.5293 28.109 20.7598C27.5523 20.9904 26.9557 21.1091 26.3532 21.1091C25.1363 21.1091 23.9693 20.6257 23.1088 19.7652C22.2483 18.9048 21.7649 17.7377 21.7649 16.5209C21.7649 15.304 22.2483 14.1369 23.1088 13.2765C23.9693 12.416 25.1363 11.9326 26.3532 11.9326ZM36.8445 13.2435C37.361 13.2435 37.8724 13.3453 38.3495 13.5429C38.8266 13.7405 39.2602 14.0302 39.6254 14.3954C39.9906 14.7606 40.2803 15.1942 40.4779 15.6713C40.6755 16.1485 40.7773 16.6599 40.7773 17.1763C40.7773 17.6928 40.6755 18.2042 40.4779 18.6813C40.2803 19.1585 39.9906 19.592 39.6254 19.9572C39.2602 20.3224 38.8266 20.6121 38.3495 20.8097C37.8724 21.0074 37.361 21.1091 36.8445 21.1091C35.8015 21.1091 34.8011 20.6947 34.0636 19.9572C33.3261 19.2197 32.9117 18.2194 32.9117 17.1763C32.9117 16.1333 33.3261 15.133 34.0636 14.3954C34.8011 13.6579 35.8015 13.2435 36.8445 13.2435ZM15.8618 13.2435C16.3783 13.2435 16.8897 13.3453 17.3668 13.5429C17.844 13.7405 18.2775 14.0302 18.6427 14.3954C19.0079 14.7606 19.2976 15.1942 19.4952 15.6713C19.6929 16.1485 19.7946 16.6599 19.7946 17.1763C19.7946 17.6928 19.6929 18.2042 19.4952 18.6813C19.2976 19.1585 19.0079 19.592 18.6427 19.9572C18.2775 20.3224 17.844 20.6121 17.3668 20.8097C16.8897 21.0074 16.3783 21.1091 15.8618 21.1091C14.8188 21.1091 13.8185 20.6947 13.0809 19.9572C12.3434 19.2197 11.9291 18.2194 11.9291 17.1763C11.9291 16.1333 12.3434 15.133 13.0809 14.3954C13.8185 13.6579 14.8188 13.2435 15.8618 13.2435Z" fill="white"/>
</svg>
