<svg width="76" height="1246" viewBox="0 0 76 1246" fill="none" xmlns="http://www.w3.org/2000/svg">
<rect x="38" y="160" width="25" height="1" fill="#00A79D"/>
<ellipse cx="68.5" cy="161" rx="7.5" ry="7" fill="#67C15E"/>
<rect x="38" y="316" width="24.359" height="0.999998" transform="rotate(-180 38 316)" fill="#00A79D"/>
<ellipse cx="7.30766" cy="315" rx="7.30769" ry="7" transform="rotate(-180 7.30766 315)" fill="#00A79D"/>
<rect x="38" y="624" width="24.359" height="0.999998" transform="rotate(-180 38 624)" fill="#00A791"/>
<ellipse cx="7.30766" cy="623" rx="7.30769" ry="7" transform="rotate(-180 7.30766 623)" fill="#00A684"/>
<rect x="38" y="776" width="24.359" height="0.999998" fill="#67C15E"/>
<ellipse cx="68.6923" cy="777" rx="7.30769" ry="7" fill="#67C15E"/>
<rect x="38" y="1084" width="24.359" height="0.999998" fill="#00A791"/>
<ellipse cx="68.6923" cy="1085" rx="7.30769" ry="7" fill="#00A676"/>
<rect x="38" y="8" width="24.359" height="0.999998" transform="rotate(-180 38 8)" fill="#00A79D"/>
<ellipse cx="7.30766" cy="7" rx="7.30769" ry="7" transform="rotate(-180 7.30766 7)" fill="#1DA1F2"/>
<rect x="38" y="466.668" width="24.359" height="0.999998" fill="#1DA1F2"/>
<ellipse cx="68.6923" cy="467.667" rx="7.30769" ry="6.99795" fill="#1DA1F2"/>
<rect x="38" y="1240" width="24.359" height="0.999998" transform="rotate(-180 38 1240)" fill="#00A79D"/>
<ellipse cx="7.30766" cy="1239" rx="7.30769" ry="7" transform="rotate(-180 7.30766 1239)" fill="#1DA1F2"/>
<rect x="13" y="929.532" width="25" height="1" fill="#00A79D"/>
<ellipse cx="7" cy="929.532" rx="7" ry="6.99795" fill="#9747FF"/>
<rect x="38" y="7" width="1" height="1233" fill="#00A79D"/>
</svg>
